LisuBosa-Regular.ufo
<glyph name="exclam" format="2">
  <advance width="285"/>
  <unicode hex="0021"/>
  <outline>
    <contour>
      <point x="143" y="-11" type="curve" smooth="yes"/>
      <point x="180" y="-11"/>
      <point x="210" y="18"/>
      <point x="210" y="55" type="curve" smooth="yes"/>
      <point x="210" y="92"/>
      <point x="180" y="123"/>
      <point x="143" y="123" type="curve" smooth="yes"/>
      <point x="105" y="123"/>
      <point x="75" y="92"/>
      <point x="75" y="55" type="curve" smooth="yes"/>
      <point x="75" y="18"/>
      <point x="105" y="-11"/>
    </contour>
    <contour>
      <point x="180" y="193" type="line"/>
      <point x="195" y="562" type="line"/>
      <point x="89" y="562" type="line"/>
      <point x="105" y="193" type="line"/>
    </contour>
  </outline>
</glyph>
<glyph name="numbersign" format="2">
  <advance width="440"/>
  <unicode hex="0023"/>
  <outline>
    <contour>
      <point x="268" y="215" type="line"/>
      <point x="289" y="328" type="line"/>
      <point x="176" y="328" type="line"/>
      <point x="155" y="215" type="line"/>
    </contour>
    <contour>
      <point x="415" y="215" type="line"/>
      <point x="415" y="155" type="line"/>
      <point x="317" y="155" type="line"/>
      <point x="287" y="-4" type="line"/>
      <point x="227" y="-4" type="line"/>
      <point x="257" y="155" type="line"/>
      <point x="143" y="155" type="line"/>
      <point x="114" y="-4" type="line"/>
      <point x="53" y="-4" type="line"/>
      <point x="84" y="155" type="line"/>
      <point x="25" y="155" type="line"/>
      <point x="25" y="215" type="line"/>
      <point x="95" y="215" type="line"/>
      <point x="116" y="328" type="line"/>
      <point x="25" y="328" type="line"/>
      <point x="25" y="387" type="line"/>
      <point x="126" y="387" type="line"/>
      <point x="155" y="542" type="line"/>
      <point x="215" y="542" type="line"/>
      <point x="186" y="387" type="line"/>
      <point x="300" y="387" type="line"/>
      <point x="329" y="542" type="line"/>
      <point x="389" y="542" type="line"/>
      <point x="360" y="387" type="line"/>
      <point x="415" y="387" type="line"/>
      <point x="415" y="328" type="line"/>
      <point x="349" y="328" type="line"/>
      <point x="329" y="215" type="line"/>
    </contour>
  </outline>
</glyph>
<glyph name="dollar" format="2">
  <advance width="463"/>
  <unicode hex="0024"/>
  <outline>
    <contour>
      <point x="229" y="35" type="curve" smooth="yes"/>
      <point x="190" y="35"/>
      <point x="150" y="40"/>
      <point x="108" y="58" type="curve"/>
      <point x="161" y="23" type="line"/>
      <point x="145" y="94" type="line" smooth="yes"/>
      <point x="134" y="142"/>
      <point x="115" y="155"/>
      <point x="91" y="155" type="curve" smooth="yes"/>
      <point x="69" y="155"/>
      <point x="56" y="144"/>
      <point x="46" y="124" type="curve"/>
      <point x="50" y="44"/>
      <point x="123" y="-8"/>
      <point x="225" y="-8" type="curve" smooth="yes"/>
      <point x="353" y="-8"/>
      <point x="430" y="61"/>
      <point x="430" y="161" type="curve" smooth="yes"/>
      <point x="430" y="233"/>
      <point x="392" y="287"/>
      <point x="265" y="328" type="curve" smooth="yes"/>
      <point x="231" y="339" type="line" smooth="yes"/>
      <point x="166" y="360"/>
      <point x="131" y="385"/>
      <point x="131" y="432" type="curve" smooth="yes"/>
      <point x="131" y="500"/>
      <point x="182" y="532"/>
      <point x="250" y="532" type="curve" smooth="yes"/>
      <point x="278" y="532"/>
      <point x="310" y="527"/>
      <point x="350" y="511" type="curve"/>
      <point x="299" y="546" type="line"/>
      <point x="314" y="477" type="line" smooth="yes"/>
      <point x="325" y="426"/>
      <point x="349" y="413"/>
      <point x="371" y="413" type="curve" smooth="yes"/>
      <point x="390" y="413"/>
      <point x="406" y="423"/>
      <point x="414" y="444" type="curve"/>
      <point x="407" y="524"/>
      <point x="334" y="578"/>
      <point x="240" y="578" type="curve" smooth="yes"/>
      <point x="129" y="578"/>
      <point x="52" y="504"/>
      <point x="52" y="409" type="curve" smooth="yes"/>
      <point x="52" y="328"/>
      <point x="111" y="284"/>
      <point x="208" y="249" type="curve" smooth="yes"/>
      <point x="241" y="237" type="line" smooth="yes"/>
      <point x="319" y="209"/>
      <point x="351" y="192"/>
      <point x="351" y="140" type="curve" smooth="yes"/>
      <point x="351" y="73"/>
      <point x="303" y="35"/>
    </contour>
    <contour>
      <point x="265" y="295" type="line"/>
      <point x="265" y="661" type="line"/>
      <point x="221" y="661" type="line"/>
      <point x="221" y="295" type="line"/>
    </contour>
    <contour>
      <point x="215" y="-85" type="line"/>
      <point x="259" y="-85" type="line"/>
      <point x="259" y="295" type="line"/>
      <point x="215" y="295" type="line"/>
    </contour>
  </outline>
</glyph>
<glyph name="parenleft" format="2">
  <advance width="283"/>
  <unicode hex="0028"/>
  <outline>
    <contour>
      <point x="252" y="-97" type="line"/>
      <point x="128" y="-27"/>
      <point x="118" y="110"/>
      <point x="118" y="268" type="curve" smooth="yes"/>
      <point x="118" y="425"/>
      <point x="128" y="562"/>
      <point x="252" y="632" type="curve"/>
      <point x="252" y="697" type="line"/>
      <point x="81" y="609"/>
      <point x="28" y="477"/>
      <point x="28" y="268" type="curve" smooth="yes"/>
      <point x="28" y="57"/>
      <point x="81" y="-71"/>
      <point x="252" y="-162" type="curve"/>
    </contour>
  </outline>
</glyph>
<glyph name="parenright" format="2">
  <advance width="283"/>
  <unicode hex="0029"/>
  <outline>
    <contour>
      <point x="255" y="268" type="curve" smooth="yes"/>
      <point x="255" y="479"/>
      <point x="202" y="606"/>
      <point x="31" y="697" type="curve"/>
      <point x="31" y="632" type="line"/>
      <point x="155" y="562"/>
      <point x="165" y="425"/>
      <point x="165" y="268" type="curve" smooth="yes"/>
      <point x="165" y="110"/>
      <point x="155" y="-27"/>
      <point x="31" y="-97" type="curve"/>
      <point x="31" y="-162" type="line"/>
      <point x="202" y="-71"/>
      <point x="255" y="57"/>
    </contour>
  </outline>
</glyph>
<glyph name="asterisk" format="2">
  <advance width="365"/>
  <unicode hex="002A"/>
  <outline>
    <contour>
      <point x="190" y="421" type="line"/>
      <point x="190" y="410" type="line"/>
      <point x="325" y="452" type="line"/>
      <point x="294" y="519" type="line"/>
      <point x="163" y="423" type="line"/>
      <point x="194" y="401" type="line"/>
      <point x="220" y="562" type="line"/>
      <point x="146" y="562" type="line"/>
      <point x="170" y="401" type="line"/>
      <point x="200" y="422" type="line"/>
      <point x="70" y="521" type="line"/>
      <point x="40" y="453" type="line"/>
      <point x="174" y="410" type="line"/>
      <point x="174" y="422" type="line"/>
      <point x="40" y="380" type="line"/>
      <point x="70" y="312" type="line"/>
      <point x="198" y="412" type="line"/>
      <point x="170" y="433" type="line"/>
      <point x="146" y="271" type="line"/>
      <point x="220" y="271" type="line"/>
      <point x="194" y="432" type="line"/>
      <point x="165" y="410" type="line"/>
      <point x="294" y="314" type="line"/>
      <point x="325" y="381" type="line"/>
    </contour>
  </outline>
</glyph>
<glyph name="slash" format="2">
  <advance width="288"/>
  <unicode hex="002F"/>
  <outline>
    <contour>
      <point x="248" y="667" type="line"/>
      <point x="312" y="667" type="line"/>
      <point x="41" y="-120" type="line"/>
      <point x="-24" y="-120" type="line"/>
    </contour>
  </outline>
</glyph>
<glyph name="zero" format="2">
  <advance width="434"/>
  <unicode hex="0030"/>
  <outline>
    <contour>
      <point x="218" y="-8" type="curve" smooth="yes"/>
      <point x="344" y="-8"/>
      <point x="396" y="126"/>
      <point x="396" y="266" type="curve" smooth="yes"/>
      <point x="396" y="409"/>
      <point x="344" y="538"/>
      <point x="217" y="538" type="curve" smooth="yes"/>
      <point x="91" y="538"/>
      <point x="38" y="403"/>
      <point x="38" y="265" type="curve" smooth="yes"/>
      <point x="38" y="130"/>
      <point x="89" y="-8"/>
    </contour>
    <contour>
      <point x="217" y="72" type="curve" smooth="yes"/>
      <point x="155" y="72"/>
      <point x="119" y="130"/>
      <point x="119" y="265" type="curve" smooth="yes"/>
      <point x="119" y="400"/>
      <point x="154" y="458"/>
      <point x="216" y="458" type="curve" smooth="yes"/>
      <point x="280" y="458"/>
      <point x="315" y="400"/>
      <point x="315" y="265" type="curve" smooth="yes"/>
      <point x="315" y="130"/>
      <point x="280" y="72"/>
    </contour>
  </outline>
</glyph>
<glyph name="one" format="2">
  <advance width="434"/>
  <unicode hex="0031"/>
  <outline>
    <contour>
      <point x="292" y="0" type="line"/>
      <point x="212" y="0" type="line"/>
      <point x="212" y="394" type="line"/>
      <point x="173" y="361"/>
      <point x="135" y="336"/>
      <point x="94" y="319" type="curve"/>
      <point x="94" y="399" type="line"/>
      <point x="161" y="434"/>
      <point x="206" y="478"/>
      <point x="228" y="531" type="curve"/>
      <point x="292" y="531" type="line"/>
    </contour>
  </outline>
</glyph>
<glyph name="two" format="2">
  <advance width="434"/>
  <unicode hex="0032"/>
  <outline>
    <contour>
      <point x="392" y="0" type="line"/>
      <point x="42" y="0" type="line"/>
      <point x="42" y="50" type="line" smooth="yes"/>
      <point x="42" y="77"/>
      <point x="65" y="114"/>
      <point x="112" y="155" type="curve" smooth="yes"/>
      <point x="141" y="180"/>
      <point x="183" y="217"/>
      <point x="240" y="268" type="curve" smooth="yes"/>
      <point x="288" y="311"/>
      <point x="309" y="341"/>
      <point x="309" y="388" type="curve" smooth="yes"/>
      <point x="309" y="432"/>
      <point x="270" y="459"/>
      <point x="222" y="459" type="curve" smooth="yes"/>
      <point x="169" y="459"/>
      <point x="129" y="430"/>
      <point x="124" y="376" type="curve"/>
      <point x="46" y="383" type="line"/>
      <point x="55" y="478"/>
      <point x="129" y="538"/>
      <point x="226" y="538" type="curve" smooth="yes"/>
      <point x="312" y="538"/>
      <point x="392" y="481"/>
      <point x="392" y="392" type="curve" smooth="yes"/>
      <point x="392" y="345"/>
      <point x="378" y="296"/>
      <point x="335" y="253" type="curve" smooth="yes"/>
      <point x="317" y="235"/>
      <point x="281" y="201"/>
      <point x="222" y="146" type="curve" smooth="yes"/>
      <point x="198" y="123"/>
      <point x="171" y="103"/>
      <point x="149" y="80" type="curve"/>
      <point x="392" y="80" type="line"/>
    </contour>
  </outline>
</glyph>
<glyph name="three" format="2">
  <advance width="434"/>
  <unicode hex="0033"/>
  <outline>
    <contour>
      <point x="391" y="163" type="curve" smooth="yes"/>
      <point x="391" y="67"/>
      <point x="309" y="-7"/>
      <point x="213" y="-7" type="curve" smooth="yes"/>
      <point x="118" y="-7"/>
      <point x="52" y="58"/>
      <point x="43" y="153" type="curve"/>
      <point x="127" y="165" type="line"/>
      <point x="131" y="100"/>
      <point x="157" y="71"/>
      <point x="213" y="71" type="curve" smooth="yes"/>
      <point x="263" y="71"/>
      <point x="308" y="108"/>
      <point x="308" y="160" type="curve" smooth="yes"/>
      <point x="308" y="212"/>
      <point x="268" y="245"/>
      <point x="217" y="245" type="curve" smooth="yes"/>
      <point x="210" y="245"/>
      <point x="176" y="244"/>
      <point x="170" y="243" type="curve"/>
      <point x="170" y="312" type="line"/>
      <point x="179" y="311"/>
      <point x="191" y="311"/>
      <point x="207" y="311" type="curve" smooth="yes"/>
      <point x="254" y="311"/>
      <point x="285" y="345"/>
      <point x="285" y="396" type="curve" smooth="yes"/>
      <point x="285" y="435"/>
      <point x="249" y="459"/>
      <point x="207" y="459" type="curve" smooth="yes"/>
      <point x="159" y="459"/>
      <point x="131" y="436"/>
      <point x="119" y="385" type="curve"/>
      <point x="44" y="394" type="line"/>
      <point x="60" y="477"/>
      <point x="127" y="538"/>
      <point x="210" y="538" type="curve" smooth="yes"/>
      <point x="301" y="538"/>
      <point x="367" y="475"/>
      <point x="367" y="394" type="curve" smooth="yes"/>
      <point x="367" y="353"/>
      <point x="348" y="317"/>
      <point x="311" y="287" type="curve"/>
      <point x="364" y="258"/>
      <point x="391" y="216"/>
    </contour>
  </outline>
</glyph>
<glyph name="six" format="2">
  <advance width="434"/>
  <unicode hex="0036"/>
  <outline>
    <contour>
      <point x="394" y="164" type="curve" smooth="yes"/>
      <point x="394" y="63"/>
      <point x="321" y="-8"/>
      <point x="220" y="-8" type="curve" smooth="yes"/>
      <point x="93" y="-8"/>
      <point x="44" y="91"/>
      <point x="44" y="237" type="curve" smooth="yes"/>
      <point x="44" y="409"/>
      <point x="95" y="538"/>
      <point x="233" y="538" type="curve" smooth="yes"/>
      <point x="308" y="538"/>
      <point x="366" y="494"/>
      <point x="386" y="422" type="curve"/>
      <point x="307" y="400" type="line"/>
      <point x="298" y="436"/>
      <point x="269" y="459"/>
      <point x="233" y="459" type="curve" smooth="yes"/>
      <point x="165" y="459"/>
      <point x="133" y="391"/>
      <point x="128" y="294" type="curve"/>
      <point x="159" y="323"/>
      <point x="191" y="339"/>
      <point x="230" y="339" type="curve" smooth="yes"/>
      <point x="328" y="339"/>
      <point x="394" y="263"/>
    </contour>
    <contour>
      <point x="312" y="166" type="curve" smooth="yes"/>
      <point x="312" y="217"/>
      <point x="276" y="261"/>
      <point x="225" y="261" type="curve" smooth="yes"/>
      <point x="173" y="261"/>
      <point x="136" y="222"/>
      <point x="136" y="164" type="curve" smooth="yes"/>
      <point x="136" y="108"/>
      <point x="172" y="69"/>
      <point x="223" y="69" type="curve" smooth="yes"/>
      <point x="277" y="69"/>
      <point x="312" y="112"/>
    </contour>
  </outline>
</glyph>
<glyph name="eight" format="2">
  <advance width="434"/>
  <unicode hex="0038"/>
  <outline>
    <contour>
      <point x="393" y="146" type="curve" smooth="yes"/>
      <point x="393" y="55"/>
      <point x="310" y="-10"/>
      <point x="217" y="-10" type="curve" smooth="yes"/>
      <point x="126" y="-10"/>
      <point x="41" y="55"/>
      <point x="41" y="148" type="curve" smooth="yes"/>
      <point x="41" y="208"/>
      <point x="69" y="255"/>
      <point x="122" y="287" type="curve"/>
      <point x="84" y="313"/>
      <point x="63" y="351"/>
      <point x="63" y="398" type="curve" smooth="yes"/>
      <point x="63" y="479"/>
      <point x="134" y="538"/>
      <point x="216" y="538" type="curve" smooth="yes"/>
      <point x="301" y="538"/>
      <point x="372" y="479"/>
      <point x="372" y="396" type="curve" smooth="yes"/>
      <point x="372" y="354"/>
      <point x="351" y="316"/>
      <point x="314" y="284" type="curve"/>
      <point x="365" y="253"/>
      <point x="393" y="206"/>
    </contour>
    <contour>
      <point x="291" y="393" type="curve" smooth="yes"/>
      <point x="291" y="434"/>
      <point x="260" y="465"/>
      <point x="217" y="465" type="curve" smooth="yes"/>
      <point x="174" y="465"/>
      <point x="143" y="434"/>
      <point x="143" y="393" type="curve" smooth="yes"/>
      <point x="143" y="353"/>
      <point x="175" y="320"/>
      <point x="215" y="320" type="curve" smooth="yes"/>
      <point x="258" y="320"/>
      <point x="291" y="350"/>
    </contour>
    <contour>
      <point x="312" y="152" type="curve" smooth="yes"/>
      <point x="312" y="207"/>
      <point x="271" y="247"/>
      <point x="216" y="247" type="curve" smooth="yes"/>
      <point x="163" y="247"/>
      <point x="122" y="207"/>
      <point x="122" y="154" type="curve" smooth="yes"/>
      <point x="122" y="103"/>
      <point x="165" y="63"/>
      <point x="218" y="63" type="curve" smooth="yes"/>
      <point x="269" y="63"/>
      <point x="312" y="103"/>
    </contour>
  </outline>
</glyph>
<glyph name="question" format="2">
  <advance width="415"/>
  <unicode hex="003F"/>
  <outline>
    <contour>
      <point x="351" y="438" type="curve" smooth="yes"/>
      <point x="351" y="526"/>
      <point x="282" y="570"/>
      <point x="195" y="570" type="curve" smooth="yes"/>
      <point x="123" y="570"/>
      <point x="39" y="533"/>
      <point x="32" y="435" type="curve"/>
      <point x="116" y="435" type="line"/>
      <point x="119" y="469"/>
      <point x="150" y="490"/>
      <point x="195" y="490" type="curve" smooth="yes"/>
      <point x="245" y="490"/>
      <point x="267" y="468"/>
      <point x="267" y="438" type="curve" smooth="yes"/>
      <point x="267" y="411"/>
      <point x="241" y="382"/>
      <point x="214" y="357" type="curve" smooth="yes"/>
      <point x="172" y="317"/>
      <point x="125" y="272"/>
      <point x="125" y="215" type="curve" smooth="yes"/>
      <point x="125" y="193" type="line"/>
      <point x="209" y="193" type="line"/>
      <point x="209" y="210" type="line" smooth="yes"/>
      <point x="209" y="239"/>
      <point x="231" y="264"/>
      <point x="284" y="316" type="curve" smooth="yes"/>
      <point x="324" y="355"/>
      <point x="351" y="385"/>
    </contour>
    <contour>
      <point x="170" y="-11" type="curve" smooth="yes"/>
      <point x="207" y="-11"/>
      <point x="237" y="18"/>
      <point x="237" y="55" type="curve" smooth="yes"/>
      <point x="237" y="92"/>
      <point x="207" y="123"/>
      <point x="170" y="123" type="curve" smooth="yes"/>
      <point x="132" y="123"/>
      <point x="102" y="92"/>
      <point x="102" y="55" type="curve" smooth="yes"/>
      <point x="102" y="18"/>
      <point x="132" y="-11"/>
    </contour>
  </outline>
</glyph>
<glyph name="F" format="2">
  <advance width="532"/>
  <unicode hex="0046"/>
  <anchor x="303" y="634" name="aboveUC"/>
  <anchor x="171" y="-20" name="belowLC"/>
  <outline>
    <contour>
      <point x="39" y="0" type="line"/>
      <point x="305" y="0" type="line"/>
      <point x="305" y="38" type="line"/>
      <point x="184" y="52" type="line"/>
      <point x="161" y="52" type="line"/>
      <point x="39" y="38" type="line"/>
    </contour>
    <contour>
      <point x="124" y="188"/>
      <point x="124" y="92"/>
      <point x="121" y="0" type="curve"/>
      <point x="221" y="0" type="line"/>
      <point x="218" y="94"/>
      <point x="218" y="190"/>
      <point x="218" y="295" type="curve" smooth="yes"/>
      <point x="218" y="329" type="line" smooth="yes"/>
      <point x="218" y="425"/>
      <point x="218" y="521"/>
      <point x="221" y="614" type="curve"/>
      <point x="121" y="614" type="line"/>
      <point x="124" y="519"/>
      <point x="124" y="424"/>
      <point x="124" y="329" type="curve" smooth="yes"/>
      <point x="124" y="285" type="line" smooth="yes"/>
    </contour>
    <contour>
      <point x="171" y="292" type="line"/>
      <point x="385" y="292" type="line"/>
      <point x="385" y="336" type="line"/>
      <point x="171" y="336" type="line"/>
    </contour>
    <contour>
      <point x="369" y="197" type="line"/>
      <point x="413" y="197" type="line"/>
      <point x="413" y="422" type="line"/>
      <point x="369" y="422" type="line"/>
      <point x="356" y="325" type="line"/>
      <point x="356" y="299" type="line"/>
    </contour>
    <contour>
      <point x="39" y="575" type="line"/>
      <point x="161" y="562" type="line"/>
      <point x="171" y="562" type="line"/>
      <point x="171" y="614" type="line"/>
      <point x="39" y="614" type="line"/>
    </contour>
    <contour>
      <point x="450" y="451" type="line"/>
      <point x="506" y="451" type="line"/>
      <point x="499" y="614" type="line"/>
      <point x="171" y="614" type="line"/>
      <point x="171" y="567" type="line"/>
      <point x="458" y="567" type="line"/>
      <point x="425" y="595" type="line"/>
    </contour>
  </outline>
</glyph>
<glyph name="G" format="2">
  <advance width="626"/>
  <unicode hex="0047"/>
  <anchor x="347" y="634" name="aboveUC"/>
  <anchor x="362" y="-20" name="belowLC"/>
  <outline>
    <contour>
      <point x="42" y="119"/>
      <point x="167" y="-14"/>
      <point x="352" y="-14" type="curve" smooth="yes"/>
      <point x="429" y="-14"/>
      <point x="492" y="6"/>
      <point x="555" y="39" type="curve"/>
      <point x="555" y="80" type="line" smooth="yes"/>
      <point x="555" y="152"/>
      <point x="556" y="223"/>
      <point x="558" y="293" type="curve"/>
      <point x="460" y="293" type="line"/>
      <point x="461" y="222"/>
      <point x="462" y="150"/>
      <point x="462" y="80" type="curve" smooth="yes"/>
      <point x="462" y="24" type="line"/>
      <point x="508" y="69" type="line"/>
      <point x="458" y="45"/>
      <point x="422" y="33"/>
      <point x="371" y="33" type="curve" smooth="yes"/>
      <point x="234" y="33"/>
      <point x="149" y="131"/>
      <point x="149" y="307" type="curve" smooth="yes"/>
      <point x="149" y="483"/>
      <point x="241" y="581"/>
      <point x="366" y="581" type="curve" smooth="yes"/>
      <point x="422" y="581"/>
      <point x="471" y="563"/>
      <point x="519" y="517" type="curve"/>
      <point x="519" y="570" type="line"/>
      <point x="461" y="587" type="line"/>
      <point x="486" y="449" type="line"/>
      <point x="544" y="449" type="line"/>
      <point x="540" y="585" type="line"/>
      <point x="489" y="615"/>
      <point x="431" y="629"/>
      <point x="357" y="629" type="curve" smooth="yes"/>
      <point x="167" y="629"/>
      <point x="42" y="494"/>
      <point x="42" y="307" type="curve" smooth="yes"/>
    </contour>
    <contour>
      <point x="367" y="254" type="line"/>
      <point x="485" y="244" type="line"/>
      <point x="510" y="244" type="line"/>
      <point x="612" y="254" type="line"/>
      <point x="612" y="293" type="line"/>
      <point x="367" y="293" type="line"/>
    </contour>
  </outline>
</glyph>
<glyph name="L" format="2">
  <advance width="546"/>
  <unicode hex="004C"/>
  <anchor x="178" y="634" name="aboveUC"/>
  <anchor x="298" y="-20" name="belowLC"/>
  <outline>
    <contour>
      <point x="39" y="0" type="line"/>
      <point x="171" y="0" type="line"/>
      <point x="171" y="52" type="line"/>
      <point x="161" y="52" type="line"/>
      <point x="39" y="38" type="line"/>
    </contour>
    <contour>
      <point x="124" y="190"/>
      <point x="124" y="94"/>
      <point x="121" y="0" type="curve"/>
      <point x="221" y="0" type="line"/>
      <point x="218" y="92"/>
      <point x="218" y="188"/>
      <point x="218" y="267" type="curve" smooth="yes"/>
      <point x="218" y="329" type="line" smooth="yes"/>
      <point x="218" y="424"/>
      <point x="218" y="519"/>
      <point x="221" y="614" type="curve"/>
      <point x="121" y="614" type="line"/>
      <point x="124" y="521"/>
      <point x="124" y="425"/>
      <point x="124" y="329" type="curve" smooth="yes"/>
      <point x="124" y="282" type="line" smooth="yes"/>
    </contour>
    <contour>
      <point x="171" y="0" type="line"/>
      <point x="499" y="0" type="line"/>
      <point x="508" y="173" type="line"/>
      <point x="450" y="173" type="line"/>
      <point x="418" y="20" type="line"/>
      <point x="451" y="46" type="line"/>
      <point x="171" y="46" type="line"/>
    </contour>
    <contour>
      <point x="39" y="575" type="line"/>
      <point x="161" y="562" type="line"/>
      <point x="182" y="562" type="line"/>
      <point x="304" y="575" type="line"/>
      <point x="304" y="614" type="line"/>
      <point x="39" y="614" type="line"/>
    </contour>
  </outline>
</glyph>
<glyph name="O" format="2">
  <advance width="649"/>
  <unicode hex="004F"/>
  <anchor x="324" y="634" name="aboveUC"/>
  <anchor x="324" y="-20" name="belowLC"/>
  <anchor x="463" y="606" name="hornLC"/>
  <anchor x="408" y="0" name="ogonek"/>
  <outline>
    <contour>
      <point x="325" y="-14" type="curve" smooth="yes"/>
      <point x="469" y="-14"/>
      <point x="607" y="103"/>
      <point x="607" y="307" type="curve" smooth="yes"/>
      <point x="607" y="517"/>
      <point x="468" y="629"/>
      <point x="325" y="629" type="curve" smooth="yes"/>
      <point x="182" y="629"/>
      <point x="42" y="510"/>
      <point x="42" y="307" type="curve" smooth="yes"/>
      <point x="42" y="96"/>
      <point x="181" y="-14"/>
    </contour>
    <contour>
      <point x="325" y="33" type="curve" smooth="yes"/>
      <point x="201" y="33"/>
      <point x="149" y="166"/>
      <point x="149" y="307" type="curve" smooth="yes"/>
      <point x="149" y="447"/>
      <point x="201" y="581"/>
      <point x="325" y="581" type="curve" smooth="yes"/>
      <point x="448" y="581"/>
      <point x="500" y="447"/>
      <point x="500" y="307" type="curve" smooth="yes"/>
      <point x="500" y="166"/>
      <point x="448" y="33"/>
    </contour>
  </outline>
</glyph>
<glyph name="Z" format="2">
  <advance width="507"/>
  <unicode hex="005A"/>
  <anchor x="262" y="634" name="aboveUC"/>
  <anchor x="261" y="-20" name="belowLC"/>
  <outline>
    <contour>
      <point x="18" y="0" type="line"/>
      <point x="482" y="0" type="line"/>
      <point x="489" y="164" type="line"/>
      <point x="431" y="164" type="line"/>
      <point x="401" y="20" type="line"/>
      <point x="434" y="46" type="line"/>
      <point x="101" y="46" type="line"/>
      <point x="115" y="23" type="line"/>
      <point x="471" y="580" type="line"/>
      <point x="471" y="614" type="line"/>
      <point x="34" y="614" type="line"/>
      <point x="27" y="449" type="line"/>
      <point x="85" y="449" type="line"/>
      <point x="115" y="594" type="line"/>
      <point x="82" y="567" type="line"/>
      <point x="388" y="567" type="line"/>
      <point x="375" y="590" type="line"/>
      <point x="18" y="34" type="line"/>
    </contour>
  </outline>
</glyph>
<glyph name="g" format="2">
  <advance width="478"/>
  <unicode hex="0067"/>
  <anchor x="238" y="467" name="aboveLC"/>
  <anchor x="241" y="-222" name="belowLC"/>
  <outline>
    <contour>
      <point x="31" y="-172"/>
      <point x="86" y="-218"/>
      <point x="222" y="-218" type="curve" smooth="yes"/>
      <point x="376" y="-218"/>
      <point x="454" y="-139"/>
      <point x="454" y="-58" type="curve" smooth="yes"/>
      <point x="454" y="16"/>
      <point x="406" y="61"/>
      <point x="301" y="61" type="curve" smooth="yes"/>
      <point x="182" y="61" type="line" smooth="yes"/>
      <point x="139" y="61"/>
      <point x="128" y="78"/>
      <point x="128" y="102" type="curve" smooth="yes"/>
      <point x="128" y="128"/>
      <point x="140" y="148"/>
      <point x="165" y="175" type="curve"/>
      <point x="133" y="190" type="line"/>
      <point x="133" y="180" type="line"/>
      <point x="80" y="132"/>
      <point x="59" y="99"/>
      <point x="59" y="66" type="curve" smooth="yes"/>
      <point x="59" y="28"/>
      <point x="82" y="3"/>
      <point x="129" y="-7" type="curve"/>
      <point x="129" y="-10" type="line"/>
      <point x="145" y="-13"/>
      <point x="164" y="-14"/>
      <point x="184" y="-14" type="curve" smooth="yes"/>
      <point x="290" y="-14" type="line" smooth="yes"/>
      <point x="355" y="-14"/>
      <point x="379" y="-45"/>
      <point x="379" y="-84" type="curve" smooth="yes"/>
      <point x="379" y="-135"/>
      <point x="326" y="-175"/>
      <point x="227" y="-175" type="curve" smooth="yes"/>
      <point x="153" y="-175"/>
      <point x="107" y="-151"/>
      <point x="107" y="-92" type="curve" smooth="yes"/>
      <point x="107" y="-57"/>
      <point x="121" y="-31"/>
      <point x="155" y="3" type="curve"/>
      <point x="149" y="9" type="line"/>
      <point x="59" y="-27"/>
      <point x="31" y="-62"/>
      <point x="31" y="-107" type="curve" smooth="yes"/>
    </contour>
    <contour>
      <point x="51" y="200"/>
      <point x="120" y="149"/>
      <point x="220" y="149" type="curve" smooth="yes"/>
      <point x="320" y="149"/>
      <point x="390" y="204"/>
      <point x="390" y="299" type="curve" smooth="yes"/>
      <point x="390" y="398"/>
      <point x="321" y="449"/>
      <point x="221" y="449" type="curve" smooth="yes"/>
      <point x="122" y="449"/>
      <point x="51" y="394"/>
      <point x="51" y="299" type="curve" smooth="yes"/>
    </contour>
    <contour>
      <point x="309" y="234"/>
      <point x="276" y="186"/>
      <point x="218" y="186" type="curve" smooth="yes"/>
      <point x="163" y="186"/>
      <point x="132" y="231"/>
      <point x="132" y="299" type="curve" smooth="yes"/>
      <point x="132" y="365"/>
      <point x="166" y="412"/>
      <point x="222" y="412" type="curve" smooth="yes"/>
      <point x="277" y="412"/>
      <point x="309" y="367"/>
      <point x="309" y="301" type="curve" smooth="yes"/>
    </contour>
    <contour>
      <point x="319" y="381" type="line"/>
      <point x="459" y="381" type="line"/>
      <point x="459" y="440" type="line"/>
      <point x="445" y="449" type="line"/>
      <point x="324" y="407" type="line"/>
      <point x="319" y="407" type="line"/>
    </contour>
  </outline>
</glyph>
<glyph name="i" format="2">
  <advance width="276"/>
  <unicode hex="0069"/>
  <anchor x="141" y="652" name="aboveLC"/>
  <anchor x="144" y="-20" name="belowLC"/>
  <anchor x="172" y="0" name="ogonek"/>
  <outline>
    <contour>
      <point x="31" y="0" type="line"/>
      <point x="248" y="0" type="line"/>
      <point x="248" y="34" type="line"/>
      <point x="156" y="52" type="line"/>
      <point x="129" y="52" type="line"/>
      <point x="31" y="34" type="line"/>
    </contour>
    <contour>
      <point x="100" y="136"/>
      <point x="99" y="41"/>
      <point x="97" y="0" type="curve"/>
      <point x="186" y="0" type="line"/>
      <point x="184" y="41"/>
      <point x="184" y="136"/>
      <point x="184" y="193" type="curve" smooth="yes"/>
      <point x="184" y="314" type="line"/>
      <point x="186" y="440" type="line"/>
      <point x="172" y="449" type="line"/>
      <point x="25" y="393" type="line"/>
      <point x="25" y="360" type="line"/>
      <point x="97" y="352" type="line"/>
      <point x="99" y="315"/>
      <point x="100" y="287"/>
      <point x="100" y="236" type="curve" smooth="yes"/>
      <point x="100" y="193" type="line" smooth="yes"/>
    </contour>
    <contour>
      <point x="141" y="548" type="curve" smooth="yes"/>
      <point x="176" y="548"/>
      <point x="205" y="573"/>
      <point x="205" y="608" type="curve" smooth="yes"/>
      <point x="205" y="644"/>
      <point x="176" y="668"/>
      <point x="141" y="668" type="curve" smooth="yes"/>
      <point x="105" y="668"/>
      <point x="78" y="644"/>
      <point x="78" y="608" type="curve" smooth="yes"/>
      <point x="78" y="573"/>
      <point x="105" y="548"/>
    </contour>
  </outline>
</glyph>
<glyph name="l" format="2">
  <advance width="276"/>
  <unicode hex="006C"/>
  <anchor x="133" y="677" name="aboveLC"/>
  <anchor x="141" y="-20" name="belowLC"/>
  <outline>
    <contour>
      <point x="23" y="0" type="line"/>
      <point x="253" y="0" type="line"/>
      <point x="253" y="34" type="line"/>
      <point x="150" y="52" type="line"/>
      <point x="124" y="52" type="line"/>
      <point x="23" y="34" type="line"/>
    </contour>
    <contour>
      <point x="95" y="128"/>
      <point x="94" y="64"/>
      <point x="92" y="0" type="curve"/>
      <point x="184" y="0" type="line"/>
      <point x="182" y="64"/>
      <point x="181" y="128"/>
      <point x="181" y="193" type="curve" smooth="yes"/>
      <point x="181" y="540" type="line"/>
      <point x="184" y="670" type="line"/>
      <point x="171" y="678" type="line"/>
      <point x="22" y="637" type="line"/>
      <point x="22" y="604" type="line"/>
      <point x="95" y="595" type="line"/>
      <point x="95" y="193" type="line" smooth="yes"/>
    </contour>
  </outline>
</glyph>
<glyph name="m" format="2">
  <advance width="829"/>
  <unicode hex="006D"/>
  <anchor x="415" y="467" name="aboveLC"/>
  <anchor x="422" y="-20" name="belowLC"/>
  <outline>
    <contour>
      <point x="652" y="0" type="curve"/>
      <point x="742" y="0" type="line"/>
      <point x="740" y="41"/>
      <point x="739" y="134"/>
      <point x="739" y="193" type="curve" smooth="yes"/>
      <point x="739" y="288" type="line" smooth="yes"/>
      <point x="739" y="402"/>
      <point x="696" y="449"/>
      <point x="620" y="449" type="curve" smooth="yes"/>
      <point x="556" y="449"/>
      <point x="493" y="417"/>
      <point x="443" y="349" type="curve"/>
      <point x="436" y="349" type="line"/>
      <point x="452" y="317" type="line"/>
      <point x="501" y="363"/>
      <point x="540" y="381"/>
      <point x="580" y="381" type="curve" smooth="yes"/>
      <point x="632" y="381"/>
      <point x="655" y="357"/>
      <point x="655" y="274" type="curve" smooth="yes"/>
      <point x="655" y="193" type="line" smooth="yes"/>
      <point x="655" y="134"/>
      <point x="654" y="41"/>
    </contour>
    <contour>
      <point x="35" y="0" type="line"/>
      <point x="252" y="0" type="line"/>
      <point x="252" y="34" type="line"/>
      <point x="161" y="52" type="line"/>
      <point x="134" y="52" type="line"/>
      <point x="35" y="34" type="line"/>
    </contour>
    <contour>
      <point x="101" y="0" type="curve"/>
      <point x="191" y="0" type="line"/>
      <point x="189" y="41"/>
      <point x="188" y="136"/>
      <point x="188" y="193" type="curve" smooth="yes"/>
      <point x="188" y="334" type="line"/>
      <point x="178" y="440" type="line"/>
      <point x="163" y="449" type="line"/>
      <point x="29" y="393" type="line"/>
      <point x="29" y="360" type="line"/>
      <point x="101" y="352" type="line"/>
      <point x="103" y="315"/>
      <point x="103" y="288"/>
      <point x="103" y="238" type="curve" smooth="yes"/>
      <point x="103" y="193" type="line" smooth="yes"/>
      <point x="103" y="136"/>
      <point x="103" y="41"/>
    </contour>
    <contour>
      <point x="311" y="0" type="line"/>
      <point x="528" y="0" type="line"/>
      <point x="528" y="34" type="line"/>
      <point x="437" y="52" type="line"/>
      <point x="410" y="52" type="line"/>
      <point x="311" y="34" type="line"/>
    </contour>
    <contour>
      <point x="377" y="0" type="curve"/>
      <point x="467" y="0" type="line"/>
      <point x="465" y="41"/>
      <point x="464" y="134"/>
      <point x="464" y="193" type="curve" smooth="yes"/>
      <point x="464" y="281" type="line" smooth="yes"/>
      <point x="464" y="400"/>
      <point x="425" y="449"/>
      <point x="345" y="449" type="curve" smooth="yes"/>
      <point x="282" y="449"/>
      <point x="217" y="408"/>
      <point x="172" y="351" type="curve"/>
      <point x="163" y="351" type="line"/>
      <point x="177" y="317" type="line"/>
      <point x="225" y="360"/>
      <point x="262" y="381"/>
      <point x="306" y="381" type="curve" smooth="yes"/>
      <point x="358" y="381"/>
      <point x="379" y="354"/>
      <point x="379" y="272" type="curve" smooth="yes"/>
      <point x="379" y="193" type="line" smooth="yes"/>
      <point x="379" y="134"/>
      <point x="379" y="41"/>
    </contour>
    <contour>
      <point x="587" y="0" type="line"/>
      <point x="804" y="0" type="line"/>
      <point x="804" y="34" type="line"/>
      <point x="712" y="52" type="line"/>
      <point x="685" y="52" type="line"/>
      <point x="587" y="34" type="line"/>
    </contour>
  </outline>
</glyph>
<glyph name="r" format="2">
  <advance width="392"/>
  <unicode hex="0072"/>
  <anchor x="225" y="467" name="aboveLC"/>
  <anchor x="150" y="-20" name="belowLC"/>
  <outline>
    <contour>
      <point x="36" y="0" type="line"/>
      <point x="265" y="0" type="line"/>
      <point x="265" y="34" type="line"/>
      <point x="167" y="52" type="line"/>
      <point x="136" y="52" type="line"/>
      <point x="36" y="34" type="line"/>
    </contour>
    <contour>
      <point x="101" y="0" type="curve"/>
      <point x="191" y="0" type="line"/>
      <point x="189" y="41"/>
      <point x="188" y="136"/>
      <point x="188" y="193" type="curve" smooth="yes"/>
      <point x="188" y="325" type="line"/>
      <point x="178" y="440" type="line"/>
      <point x="163" y="449" type="line"/>
      <point x="29" y="393" type="line"/>
      <point x="29" y="360" type="line"/>
      <point x="101" y="352" type="line"/>
      <point x="103" y="315"/>
      <point x="103" y="288"/>
      <point x="103" y="238" type="curve" smooth="yes"/>
      <point x="103" y="193" type="line" smooth="yes"/>
      <point x="103" y="136"/>
      <point x="103" y="41"/>
    </contour>
    <contour>
      <point x="186" y="254" type="line"/>
      <point x="207" y="323"/>
      <point x="240" y="369"/>
      <point x="293" y="398" type="curve"/>
      <point x="249" y="392" type="line"/>
      <point x="274" y="369" type="line" smooth="yes"/>
      <point x="291" y="353"/>
      <point x="310" y="344"/>
      <point x="332" y="344" type="curve" smooth="yes"/>
      <point x="368" y="344"/>
      <point x="387" y="368"/>
      <point x="387" y="413" type="curve"/>
      <point x="377" y="435"/>
      <point x="348" y="449"/>
      <point x="320" y="449" type="curve" smooth="yes"/>
      <point x="267" y="449"/>
      <point x="211" y="401"/>
      <point x="184" y="318" type="curve"/>
      <point x="172" y="318" type="line"/>
    </contour>
  </outline>
</glyph>
<glyph name="u" format="2">
  <advance width="539"/>
  <unicode hex="0075"/>
  <anchor x="263" y="467" name="aboveLC"/>
  <anchor x="276" y="-20" name="belowLC"/>
  <anchor x="423" y="432" name="hornLC"/>
  <anchor x="455" y="0" name="ogonek"/>
  <outline>
    <contour>
      <point x="82" y="32"/>
      <point x="129" y="-11"/>
      <point x="204" y="-11" type="curve" smooth="yes"/>
      <point x="264" y="-11"/>
      <point x="325" y="18"/>
      <point x="375" y="87" type="curve"/>
      <point x="390" y="87" type="line"/>
      <point x="375" y="126" type="line"/>
      <point x="332" y="80"/>
      <point x="284" y="56"/>
      <point x="239" y="56" type="curve" smooth="yes"/>
      <point x="192" y="56"/>
      <point x="168" y="82"/>
      <point x="168" y="161" type="curve" smooth="yes"/>
      <point x="168" y="305" type="line"/>
      <point x="172" y="434" type="line"/>
      <point x="163" y="443" type="line"/>
      <point x="22" y="429" type="line"/>
      <point x="22" y="395" type="line"/>
      <point x="107" y="377" type="line"/>
      <point x="86" y="396" type="line"/>
      <point x="83" y="153" type="line" smooth="yes"/>
    </contour>
    <contour>
      <point x="374" y="-7" type="line"/>
      <point x="508" y="0" type="line"/>
      <point x="508" y="34" type="line"/>
      <point x="448" y="46" type="line"/>
      <point x="448" y="305" type="line"/>
      <point x="450" y="434" type="line"/>
      <point x="440" y="443" type="line"/>
      <point x="301" y="428" type="line"/>
      <point x="301" y="395" type="line"/>
      <point x="365" y="382" type="line"/>
      <point x="362" y="100" type="line"/>
    </contour>
  </outline>
</glyph>
<glyph name="w" format="2">
  <advance width="704"/>
  <unicode hex="0077"/>
  <anchor x="363" y="467" name="aboveLC"/>
  <anchor x="357" y="-20" name="belowLC"/>
  <outline>
    <contour>
      <point x="197" y="-4" type="line"/>
      <point x="236" y="-4" type="line"/>
      <point x="365" y="343" type="line"/>
      <point x="346" y="343" type="line"/>
      <point x="473" y="-4" type="line"/>
      <point x="511" y="-4" type="line"/>
      <point x="663" y="437" type="line"/>
      <point x="609" y="437" type="line"/>
      <point x="501" y="88" type="line"/>
      <point x="519" y="89" type="line"/>
      <point x="390" y="437" type="line"/>
      <point x="353" y="437" type="line"/>
      <point x="226" y="88" type="line"/>
      <point x="244" y="87" type="line"/>
      <point x="126" y="437" type="line"/>
      <point x="34" y="437" type="line"/>
    </contour>
    <contour>
      <point x="0" y="401" type="line"/>
      <point x="89" y="386" type="line"/>
      <point x="112" y="386" type="line"/>
      <point x="212" y="401" type="line"/>
      <point x="212" y="437" type="line"/>
      <point x="0" y="437" type="line"/>
    </contour>
    <contour>
      <point x="268" y="401" type="line"/>
      <point x="366" y="386" type="line"/>
      <point x="387" y="386" type="line"/>
      <point x="474" y="401" type="line"/>
      <point x="474" y="437" type="line"/>
      <point x="268" y="437" type="line"/>
    </contour>
    <contour>
      <point x="528" y="401" type="line"/>
      <point x="611" y="386" type="line"/>
      <point x="630" y="386" type="line"/>
      <point x="696" y="401" type="line"/>
      <point x="696" y="437" type="line"/>
      <point x="528" y="437" type="line"/>
    </contour>
  </outline>
</glyph>
<glyph name="yen" format="2">
  <advance width="463"/>
  <unicode hex="00A5"/>
  <outline>
    <contour>
      <point x="46" y="135" type="line"/>
      <point x="423" y="135" type="line"/>
      <point x="423" y="182" type="line"/>
      <point x="46" y="182" type="line"/>
    </contour>
    <contour>
      <point x="46" y="248" type="line"/>
      <point x="423" y="248" type="line"/>
      <point x="423" y="295" type="line"/>
      <point x="46" y="295" type="line"/>
    </contour>
    <contour>
      <point x="220" y="50" type="line"/>
      <point x="96" y="37" type="line"/>
      <point x="96" y="0" type="line"/>
      <point x="368" y="0" type="line"/>
      <point x="368" y="37" type="line"/>
      <point x="243" y="50" type="line"/>
    </contour>
    <contour>
      <point x="98" y="541" type="line"/>
      <point x="109" y="541" type="line"/>
      <point x="218" y="555" type="line"/>
      <point x="218" y="592" type="line"/>
      <point x="-9" y="592" type="line"/>
      <point x="-9" y="555" type="line"/>
    </contour>
    <contour>
      <point x="388" y="541" type="line"/>
      <point x="395" y="541" type="line"/>
      <point x="473" y="555" type="line"/>
      <point x="473" y="592" type="line"/>
      <point x="296" y="592" type="line"/>
      <point x="296" y="555" type="line"/>
    </contour>
    <contour>
      <point x="191" y="176" type="line" smooth="yes"/>
      <point x="191" y="116"/>
      <point x="190" y="67"/>
      <point x="188" y="0" type="curve"/>
      <point x="276" y="0" type="line"/>
      <point x="274" y="68"/>
      <point x="273" y="117"/>
      <point x="273" y="176" type="curve" smooth="yes"/>
      <point x="273" y="285" type="line"/>
      <point x="191" y="285" type="line"/>
    </contour>
    <contour>
      <point x="260" y="220" type="line"/>
      <point x="432" y="592" type="line"/>
      <point x="384" y="592" type="line"/>
      <point x="245" y="286" type="line"/>
      <point x="261" y="286" type="line"/>
      <point x="127" y="592" type="line"/>
      <point x="29" y="592" type="line"/>
      <point x="207" y="220" type="line"/>
    </contour>
  </outline>
</glyph>
<glyph name="ordfeminine" format="2">
  <advance width="323"/>
  <unicode hex="00AA"/>
  <outline>
    <contour>
      <point x="263" y="447" type="curve" smooth="yes"/>
      <point x="263" y="578" type="line" smooth="yes"/>
      <point x="263" y="657"/>
      <point x="231" y="688"/>
      <point x="161" y="688" type="curve" smooth="yes"/>
      <point x="90" y="688"/>
      <point x="42" y="655"/>
      <point x="33" y="608" type="curve"/>
      <point x="36" y="590"/>
      <point x="47" y="580"/>
      <point x="67" y="580" type="curve" smooth="yes"/>
      <point x="85" y="580"/>
      <point x="98" y="594"/>
      <point x="104" y="621" type="curve" smooth="yes"/>
      <point x="116" y="668" type="line"/>
      <point x="83" y="649" type="line"/>
      <point x="107" y="657"/>
      <point x="126" y="659"/>
      <point x="140" y="659" type="curve" smooth="yes"/>
      <point x="183" y="659"/>
      <point x="197" y="644"/>
      <point x="197" y="587" type="curve" smooth="yes"/>
      <point x="197" y="448" type="line"/>
      <point x="198" y="408"/>
      <point x="218" y="382"/>
      <point x="260" y="382" type="curve" smooth="yes"/>
      <point x="286" y="382"/>
      <point x="304" y="392"/>
      <point x="318" y="421" type="curve"/>
      <point x="304" y="433" type="line"/>
      <point x="296" y="424"/>
      <point x="289" y="419"/>
      <point x="280" y="419" type="curve" smooth="yes"/>
      <point x="268" y="419"/>
      <point x="263" y="428"/>
    </contour>
    <contour>
      <point x="92" y="470" type="curve" smooth="yes"/>
      <point x="92" y="493"/>
      <point x="103" y="516"/>
      <point x="148" y="531" type="curve" smooth="yes"/>
      <point x="172" y="540"/>
      <point x="202" y="548"/>
      <point x="230" y="555" type="curve"/>
      <point x="230" y="578" type="line"/>
      <point x="200" y="571"/>
      <point x="162" y="562"/>
      <point x="133" y="552" type="curve" smooth="yes"/>
      <point x="46" y="527"/>
      <point x="24" y="495"/>
      <point x="24" y="458" type="curve" smooth="yes"/>
      <point x="24" y="409"/>
      <point x="61" y="381"/>
      <point x="107" y="381" type="curve" smooth="yes"/>
      <point x="147" y="381"/>
      <point x="168" y="400"/>
      <point x="202" y="433" type="curve" smooth="yes"/>
      <point x="223" y="456" type="line"/>
      <point x="216" y="466" type="line"/>
      <point x="200" y="456" type="line" smooth="yes"/>
      <point x="166" y="433"/>
      <point x="155" y="425"/>
      <point x="137" y="425" type="curve" smooth="yes"/>
      <point x="114" y="425"/>
      <point x="92" y="437"/>
    </contour>
  </outline>
</glyph>
<glyph name="logicalnot" format="2">
  <advance width="489"/>
  <unicode hex="00AC"/>
  <outline>
    <contour>
      <point x="23" y="312" type="line"/>
      <point x="417" y="312" type="line"/>
      <point x="399" y="333" type="line"/>
      <point x="399" y="144" type="line"/>
      <point x="459" y="144" type="line"/>
      <point x="459" y="368" type="line"/>
      <point x="23" y="368" type="line"/>
    </contour>
  </outline>
</glyph>
<glyph name="registered" format="2">
  <advance width="423"/>
  <unicode hex="00AE"/>
  <outline>
    <contour>
      <point x="60" y="473" type="curve" smooth="yes"/>
      <point x="60" y="567"/>
      <point x="128" y="625"/>
      <point x="211" y="625" type="curve" smooth="yes"/>
      <point x="293" y="625"/>
      <point x="362" y="567"/>
      <point x="362" y="473" type="curve" smooth="yes"/>
      <point x="362" y="380"/>
      <point x="293" y="321"/>
      <point x="211" y="321" type="curve" smooth="yes"/>
      <point x="128" y="321"/>
      <point x="60" y="380"/>
    </contour>
    <contour>
      <point x="152" y="385" type="line"/>
      <point x="193" y="385" type="line"/>
      <point x="193" y="569" type="line"/>
      <point x="152" y="569" type="line"/>
    </contour>
    <contour>
      <point x="167" y="404" type="line"/>
      <point x="126" y="400" type="line"/>
      <point x="126" y="385" type="line"/>
      <point x="218" y="385" type="line"/>
      <point x="218" y="400" type="line"/>
      <point x="174" y="404" type="line"/>
    </contour>
    <contour>
      <point x="167" y="550" type="line"/>
      <point x="172" y="550" type="line"/>
      <point x="172" y="569" type="line"/>
      <point x="126" y="569" type="line"/>
      <point x="126" y="554" type="line"/>
    </contour>
    <contour>
      <point x="27" y="473" type="curve" smooth="yes"/>
      <point x="27" y="360"/>
      <point x="110" y="291"/>
      <point x="211" y="291" type="curve" smooth="yes"/>
      <point x="310" y="291"/>
      <point x="395" y="360"/>
      <point x="395" y="473" type="curve" smooth="yes"/>
      <point x="395" y="587"/>
      <point x="310" y="655"/>
      <point x="211" y="655" type="curve" smooth="yes"/>
      <point x="113" y="655"/>
      <point x="27" y="587"/>
    </contour>
    <contour>
      <point x="310" y="400" type="line"/>
      <point x="266" y="404" type="line"/>
      <point x="289" y="391" type="line"/>
      <point x="280" y="438" type="line" smooth="yes"/>
      <point x="275" y="464"/>
      <point x="252" y="477"/>
      <point x="216" y="477" type="curve"/>
      <point x="203" y="471" type="line"/>
      <point x="264" y="471"/>
      <point x="284" y="498"/>
      <point x="284" y="523" type="curve" smooth="yes"/>
      <point x="284" y="551"/>
      <point x="258" y="569"/>
      <point x="214" y="569" type="curve" smooth="yes"/>
      <point x="172" y="569" type="line"/>
      <point x="172" y="553" type="line"/>
      <point x="205" y="553" type="line" smooth="yes"/>
      <point x="229" y="553"/>
      <point x="241" y="541"/>
      <point x="241" y="518" type="curve" smooth="yes"/>
      <point x="241" y="499"/>
      <point x="231" y="483"/>
      <point x="205" y="483" type="curve" smooth="yes"/>
      <point x="172" y="483" type="line"/>
      <point x="172" y="467" type="line"/>
      <point x="206" y="467" type="line" smooth="yes"/>
      <point x="223" y="467"/>
      <point x="234" y="460"/>
      <point x="237" y="444" type="curve" smooth="yes"/>
      <point x="244" y="406" type="line" smooth="yes"/>
      <point x="248" y="386"/>
      <point x="258" y="381"/>
      <point x="281" y="381" type="curve" smooth="yes"/>
      <point x="292" y="381"/>
      <point x="298" y="382"/>
      <point x="310" y="385" type="curve"/>
    </contour>
  </outline>
</glyph>
<glyph name="plusminus" format="2">
  <advance width="489"/>
  <unicode hex="00B1"/>
  <outline>
    <contour>
      <point x="215" y="92" type="line"/>
      <point x="275" y="92" type="line"/>
      <point x="275" y="514" type="line"/>
      <point x="215" y="514" type="line"/>
    </contour>
    <contour>
      <point x="462" y="277" type="line"/>
      <point x="462" y="333" type="line"/>
      <point x="26" y="333" type="line"/>
      <point x="26" y="277" type="line"/>
    </contour>
    <contour>
      <point x="462" y="0" type="line"/>
      <point x="462" y="56" type="line"/>
      <point x="26" y="56" type="line"/>
      <point x="26" y="0" type="line"/>
    </contour>
  </outline>
</glyph>
<glyph name="periodcentered" format="2">
  <advance width="276"/>
  <unicode hex="00B7"/>
  <outline>
    <contour>
      <point x="138" y="238" type="curve" smooth="yes"/>
      <point x="175" y="238"/>
      <point x="205" y="269"/>
      <point x="205" y="305" type="curve" smooth="yes"/>
      <point x="205" y="343"/>
      <point x="175" y="374"/>
      <point x="138" y="374" type="curve" smooth="yes"/>
      <point x="100" y="374"/>
      <point x="70" y="343"/>
      <point x="70" y="305" type="curve" smooth="yes"/>
      <point x="70" y="269"/>
      <point x="100" y="238"/>
    </contour>
  </outline>
</glyph>
<glyph name="guillemotright" format="2">
  <advance width="454"/>
  <unicode hex="00BB"/>
  <outline>
    <contour>
      <point x="48" y="420" type="line"/>
      <point x="24" y="394" type="line"/>
      <point x="180" y="211" type="line"/>
      <point x="180" y="253" type="line"/>
      <point x="24" y="69" type="line"/>
      <point x="48" y="44" type="line"/>
      <point x="240" y="207" type="line"/>
      <point x="240" y="257" type="line"/>
    </contour>
    <contour>
      <point x="236" y="420" type="line"/>
      <point x="212" y="394" type="line"/>
      <point x="368" y="211" type="line"/>
      <point x="368" y="253" type="line"/>
      <point x="212" y="69" type="line"/>
      <point x="236" y="44" type="line"/>
      <point x="426" y="207" type="line"/>
      <point x="426" y="257" type="line"/>
    </contour>
  </outline>
</glyph>
<glyph name="Aring" format="2">
  <advance width="611"/>
  <unicode hex="00C5"/>
  <anchor x="306" y="843" name="aboveUC"/>
  <anchor x="286" y="-20" name="belowLC"/>
  <anchor x="504" y="0" name="ogonek"/>
  <outline>
    <contour>
      <point x="5" y="0" type="line"/>
      <point x="214" y="0" type="line"/>
      <point x="214" y="38" type="line"/>
      <point x="115" y="52" type="line"/>
      <point x="97" y="52" type="line"/>
      <point x="5" y="38" type="line"/>
    </contour>
    <contour>
      <point x="64" y="0" type="line"/>
      <point x="109" y="0" type="line"/>
      <point x="282" y="510" type="line"/>
      <point x="452" y="0" type="line"/>
      <point x="549" y="0" type="line"/>
      <point x="338" y="618" type="line"/>
      <point x="276" y="618" type="line"/>
    </contour>
    <contour>
      <point x="156" y="197" type="line"/>
      <point x="435" y="197" type="line"/>
      <point x="419" y="241" type="line"/>
      <point x="171" y="241" type="line"/>
    </contour>
    <contour>
      <point x="347" y="0" type="line"/>
      <point x="601" y="0" type="line"/>
      <point x="601" y="38" type="line"/>
      <point x="487" y="52" type="line"/>
      <point x="461" y="52" type="line"/>
      <point x="347" y="38" type="line"/>
    </contour>
    <contour>
      <point x="306" y="662" type="curve" smooth="yes"/>
      <point x="351" y="662"/>
      <point x="395" y="694"/>
      <point x="395" y="747" type="curve" smooth="yes"/>
      <point x="395" y="803"/>
      <point x="351" y="834"/>
      <point x="306" y="834" type="curve" smooth="yes"/>
      <point x="260" y="834"/>
      <point x="217" y="801"/>
      <point x="217" y="747" type="curve" smooth="yes"/>
      <point x="217" y="692"/>
      <point x="260" y="662"/>
    </contour>
    <contour>
      <point x="306" y="695" type="curve" smooth="yes"/>
      <point x="275" y="695"/>
      <point x="258" y="721"/>
      <point x="258" y="747" type="curve" smooth="yes"/>
      <point x="258" y="774"/>
      <point x="276" y="798"/>
      <point x="306" y="798" type="curve" smooth="yes"/>
      <point x="336" y="798"/>
      <point x="354" y="774"/>
      <point x="354" y="747" type="curve" smooth="yes"/>
      <point x="354" y="721"/>
      <point x="336" y="695"/>
    </contour>
  </outline>
</glyph>
<glyph name="Eth" format="2">
  <advance width="652"/>
  <unicode hex="00D0"/>
  <anchor x="303" y="634" name="aboveUC"/>
  <anchor x="305" y="-20" name="belowLC"/>
  <outline>
    <contour>
      <point x="355" y="292" type="line"/>
      <point x="355" y="336" type="line"/>
      <point x="39" y="336" type="line"/>
      <point x="39" y="292" type="line"/>
    </contour>
    <contour>
      <point x="171" y="0" type="line"/>
      <point x="293" y="0" type="line" smooth="yes"/>
      <point x="475" y="0"/>
      <point x="609" y="109"/>
      <point x="609" y="306" type="curve" smooth="yes"/>
      <point x="609" y="505"/>
      <point x="489" y="614"/>
      <point x="310" y="614" type="curve" smooth="yes"/>
      <point x="171" y="614" type="line"/>
      <point x="171" y="570" type="line"/>
      <point x="296" y="570" type="line" smooth="yes"/>
      <point x="426" y="570"/>
      <point x="504" y="478"/>
      <point x="504" y="306" type="curve" smooth="yes"/>
      <point x="504" y="140"/>
      <point x="426" y="44"/>
      <point x="288" y="44" type="curve" smooth="yes"/>
      <point x="171" y="44" type="line"/>
    </contour>
    <contour>
      <point x="39" y="0" type="line"/>
      <point x="171" y="0" type="line"/>
      <point x="171" y="52" type="line"/>
      <point x="161" y="52" type="line"/>
      <point x="39" y="38" type="line"/>
    </contour>
    <contour>
      <point x="121" y="0" type="curve"/>
      <point x="221" y="0" type="line"/>
      <point x="218" y="94"/>
      <point x="218" y="190"/>
      <point x="218" y="295" type="curve" smooth="yes"/>
      <point x="218" y="329" type="line" smooth="yes"/>
      <point x="218" y="425"/>
      <point x="218" y="521"/>
      <point x="221" y="614" type="curve"/>
      <point x="121" y="614" type="line"/>
      <point x="124" y="519"/>
      <point x="124" y="424"/>
      <point x="124" y="329" type="curve" smooth="yes"/>
      <point x="124" y="295" type="line" smooth="yes"/>
      <point x="124" y="188"/>
      <point x="124" y="92"/>
    </contour>
    <contour>
      <point x="161" y="562" type="line"/>
      <point x="171" y="562" type="line"/>
      <point x="171" y="614" type="line"/>
      <point x="39" y="614" type="line"/>
      <point x="39" y="575" type="line"/>
    </contour>
  </outline>
</glyph>
<glyph name="Ograve" format="2">
  <advance width="649"/>
  <unicode hex="00D2"/>
  <anchor x="322" y="807" name="aboveUC"/>
  <anchor x="324" y="-20" name="belowLC"/>
  <anchor x="463" y="606" name="hornLC"/>
  <anchor x="408" y="0" name="ogonek"/>
  <outline>
    <contour>
      <point x="325" y="-14" type="curve" smooth="yes"/>
      <point x="469" y="-14"/>
      <point x="607" y="103"/>
      <point x="607" y="307" type="curve" smooth="yes"/>
      <point x="607" y="517"/>
      <point x="468" y="629"/>
      <point x="325" y="629" type="curve" smooth="yes"/>
      <point x="182" y="629"/>
      <point x="42" y="510"/>
      <point x="42" y="307" type="curve" smooth="yes"/>
      <point x="42" y="96"/>
      <point x="181" y="-14"/>
    </contour>
    <contour>
      <point x="325" y="33" type="curve" smooth="yes"/>
      <point x="201" y="33"/>
      <point x="149" y="166"/>
      <point x="149" y="307" type="curve" smooth="yes"/>
      <point x="149" y="447"/>
      <point x="201" y="581"/>
      <point x="325" y="581" type="curve" smooth="yes"/>
      <point x="448" y="581"/>
      <point x="500" y="447"/>
      <point x="500" y="307" type="curve" smooth="yes"/>
      <point x="500" y="166"/>
      <point x="448" y="33"/>
    </contour>
    <contour>
      <point x="386" y="685" type="line"/>
      <point x="357" y="713"/>
      <point x="328" y="743"/>
      <point x="298" y="772" type="curve" smooth="yes"/>
      <point x="272" y="798"/>
      <point x="255" y="807"/>
      <point x="239" y="807" type="curve" smooth="yes"/>
      <point x="219" y="807"/>
      <point x="203" y="793"/>
      <point x="203" y="774" type="curve" smooth="yes"/>
      <point x="203" y="758"/>
      <point x="214" y="740"/>
      <point x="250" y="722" type="curve" smooth="yes"/>
      <point x="288" y="701"/>
      <point x="328" y="680"/>
      <point x="368" y="660" type="curve"/>
    </contour>
  </outline>
</glyph>
<glyph name="Otilde" format="2">
  <advance width="649"/>
  <unicode hex="00D5"/>
  <anchor x="325" y="804" name="aboveUC"/>
  <anchor x="324" y="-20" name="belowLC"/>
  <anchor x="463" y="606" name="hornLC"/>
  <anchor x="408" y="0" name="ogonek"/>
  <outline>
    <contour>
      <point x="325" y="-14" type="curve" smooth="yes"/>
      <point x="469" y="-14"/>
      <point x="607" y="103"/>
      <point x="607" y="307" type="curve" smooth="yes"/>
      <point x="607" y="517"/>
      <point x="468" y="629"/>
      <point x="325" y="629" type="curve" smooth="yes"/>
      <point x="182" y="629"/>
      <point x="42" y="510"/>
      <point x="42" y="307" type="curve" smooth="yes"/>
      <point x="42" y="96"/>
      <point x="181" y="-14"/>
    </contour>
    <contour>
      <point x="325" y="33" type="curve" smooth="yes"/>
      <point x="201" y="33"/>
      <point x="149" y="166"/>
      <point x="149" y="307" type="curve" smooth="yes"/>
      <point x="149" y="447"/>
      <point x="201" y="581"/>
      <point x="325" y="581" type="curve" smooth="yes"/>
      <point x="448" y="581"/>
      <point x="500" y="447"/>
      <point x="500" y="307" type="curve" smooth="yes"/>
      <point x="500" y="166"/>
      <point x="448" y="33"/>
    </contour>
    <contour>
      <point x="159" y="675" type="curve"/>
      <point x="187" y="665" type="line"/>
      <point x="202" y="709"/>
      <point x="220" y="736"/>
      <point x="250" y="736" type="curve" smooth="yes"/>
      <point x="277" y="736"/>
      <point x="297" y="712"/>
      <point x="319" y="694" type="curve" smooth="yes"/>
      <point x="339" y="678"/>
      <point x="361" y="664"/>
      <point x="394" y="664" type="curve" smooth="yes"/>
      <point x="450" y="664"/>
      <point x="479" y="711"/>
      <point x="491" y="783" type="curve"/>
      <point x="462" y="793" type="line"/>
      <point x="448" y="748"/>
      <point x="430" y="721"/>
      <point x="400" y="721" type="curve" smooth="yes"/>
      <point x="372" y="721"/>
      <point x="353" y="746"/>
      <point x="333" y="761" type="curve" smooth="yes"/>
      <point x="310" y="780"/>
      <point x="289" y="793"/>
      <point x="256" y="793" type="curve" smooth="yes"/>
      <point x="200" y="793"/>
      <point x="170" y="747"/>
    </contour>
  </outline>
</glyph>
<glyph name="edieresis" format="2">
  <advance width="470"/>
  <unicode hex="00EB"/>
  <anchor x="250" y="631" name="aboveLC"/>
  <anchor x="262" y="-20" name="belowLC"/>
  <anchor x="318" y="0" name="ogonek"/>
  <outline>
    <contour>
      <point x="39" y="73"/>
      <point x="122" y="-11"/>
      <point x="247" y="-11" type="curve" smooth="yes"/>
      <point x="332" y="-11"/>
      <point x="391" y="28"/>
      <point x="425" y="94" type="curve"/>
      <point x="402" y="113" type="line"/>
      <point x="370" y="76"/>
      <point x="333" y="50"/>
      <point x="276" y="50" type="curve" smooth="yes"/>
      <point x="188" y="50"/>
      <point x="129" y="111"/>
      <point x="129" y="227" type="curve" smooth="yes"/>
      <point x="129" y="358"/>
      <point x="193" y="407"/>
      <point x="248" y="407" type="curve" smooth="yes"/>
      <point x="302" y="407"/>
      <point x="344" y="362"/>
      <point x="344" y="309" type="curve" smooth="yes"/>
      <point x="344" y="280"/>
      <point x="333" y="260"/>
      <point x="289" y="260" type="curve" smooth="yes"/>
      <point x="78" y="260" type="line"/>
      <point x="78" y="219" type="line"/>
      <point x="421" y="219" type="line"/>
      <point x="425" y="232"/>
      <point x="426" y="250"/>
      <point x="426" y="271" type="curve" smooth="yes"/>
      <point x="426" y="382"/>
      <point x="352" y="449"/>
      <point x="253" y="449" type="curve" smooth="yes"/>
      <point x="138" y="449"/>
      <point x="39" y="357"/>
      <point x="39" y="214" type="curve" smooth="yes"/>
    </contour>
    <contour>
      <point x="152" y="546" type="curve" smooth="yes"/>
      <point x="183" y="546"/>
      <point x="208" y="568"/>
      <point x="208" y="599" type="curve" smooth="yes"/>
      <point x="208" y="631"/>
      <point x="183" y="654"/>
      <point x="152" y="654" type="curve" smooth="yes"/>
      <point x="121" y="654"/>
      <point x="96" y="631"/>
      <point x="96" y="599" type="curve" smooth="yes"/>
      <point x="96" y="568"/>
      <point x="121" y="546"/>
    </contour>
    <contour>
      <point x="348" y="546" type="curve" smooth="yes"/>
      <point x="379" y="546"/>
      <point x="404" y="568"/>
      <point x="404" y="599" type="curve" smooth="yes"/>
      <point x="404" y="631"/>
      <point x="379" y="654"/>
      <point x="348" y="654" type="curve" smooth="yes"/>
      <point x="317" y="654"/>
      <point x="291" y="631"/>
      <point x="291" y="599" type="curve" smooth="yes"/>
      <point x="291" y="568"/>
      <point x="317" y="546"/>
    </contour>
  </outline>
</glyph>
<glyph name="icircumflex" format="2">
  <advance width="276"/>
  <unicode hex="00EE"/>
  <anchor x="140" y="678" name="aboveLC"/>
  <anchor x="138" y="-20" name="belowLC"/>
  <anchor x="173" y="0" name="ogonek"/>
  <outline>
    <contour>
      <point x="97" y="0" type="curve"/>
      <point x="187" y="0" type="line"/>
      <point x="185" y="41"/>
      <point x="184" y="136"/>
      <point x="184" y="193" type="curve" smooth="yes"/>
      <point x="184" y="314" type="line"/>
      <point x="187" y="440" type="line"/>
      <point x="173" y="449" type="line"/>
      <point x="26" y="393" type="line"/>
      <point x="26" y="360" type="line"/>
      <point x="97" y="352" type="line"/>
      <point x="99" y="315"/>
      <point x="100" y="287"/>
      <point x="100" y="236" type="curve" smooth="yes"/>
      <point x="100" y="193" type="line" smooth="yes"/>
      <point x="100" y="136"/>
      <point x="99" y="41"/>
    </contour>
    <contour>
      <point x="31" y="0" type="line"/>
      <point x="248" y="0" type="line"/>
      <point x="248" y="34" type="line"/>
      <point x="156" y="52" type="line"/>
      <point x="129" y="52" type="line"/>
      <point x="31" y="34" type="line"/>
    </contour>
    <contour>
      <point x="257" y="502" type="line"/>
      <point x="280" y="523" type="line"/>
      <point x="158" y="685" type="line"/>
      <point x="124" y="685" type="line"/>
      <point x="1" y="523" type="line"/>
      <point x="24" y="502" type="line"/>
      <point x="180" y="641" type="line"/>
      <point x="101" y="641" type="line"/>
    </contour>
  </outline>
</glyph>
<glyph name="ntilde" format="2">
  <advance width="558"/>
  <unicode hex="00F1"/>
  <anchor x="278" y="667" name="aboveLC"/>
  <anchor x="288" y="-20" name="belowLC"/>
  <outline>
    <contour>
      <point x="379" y="0" type="curve"/>
      <point x="471" y="0" type="line"/>
      <point x="469" y="41"/>
      <point x="468" y="134"/>
      <point x="468" y="193" type="curve" smooth="yes"/>
      <point x="468" y="281" type="line" smooth="yes"/>
      <point x="468" y="400"/>
      <point x="427" y="449"/>
      <point x="348" y="449" type="curve" smooth="yes"/>
      <point x="286" y="449"/>
      <point x="220" y="412"/>
      <point x="174" y="355" type="curve"/>
      <point x="166" y="355" type="line"/>
      <point x="176" y="317" type="line"/>
      <point x="227" y="362"/>
      <point x="265" y="381"/>
      <point x="310" y="381" type="curve" smooth="yes"/>
      <point x="361" y="381"/>
      <point x="382" y="355"/>
      <point x="382" y="273" type="curve" smooth="yes"/>
      <point x="382" y="193" type="line" smooth="yes"/>
      <point x="382" y="134"/>
      <point x="381" y="41"/>
    </contour>
    <contour>
      <point x="35" y="0" type="line"/>
      <point x="252" y="0" type="line"/>
      <point x="252" y="34" type="line"/>
      <point x="161" y="52" type="line"/>
      <point x="134" y="52" type="line"/>
      <point x="35" y="34" type="line"/>
    </contour>
    <contour>
      <point x="101" y="0" type="curve"/>
      <point x="191" y="0" type="line"/>
      <point x="189" y="41"/>
      <point x="188" y="136"/>
      <point x="188" y="193" type="curve" smooth="yes"/>
      <point x="188" y="334" type="line"/>
      <point x="178" y="440" type="line"/>
      <point x="163" y="449" type="line"/>
      <point x="29" y="393" type="line"/>
      <point x="29" y="360" type="line"/>
      <point x="101" y="352" type="line"/>
      <point x="103" y="315"/>
      <point x="103" y="288"/>
      <point x="103" y="238" type="curve" smooth="yes"/>
      <point x="103" y="193" type="line" smooth="yes"/>
      <point x="103" y="136"/>
      <point x="103" y="41"/>
    </contour>
    <contour>
      <point x="315" y="0" type="line"/>
      <point x="531" y="0" type="line"/>
      <point x="531" y="34" type="line"/>
      <point x="440" y="52" type="line"/>
      <point x="414" y="52" type="line"/>
      <point x="315" y="34" type="line"/>
    </contour>
    <contour>
      <point x="127" y="539" type="curve"/>
      <point x="153" y="529" type="line"/>
      <point x="166" y="574"/>
      <point x="183" y="601"/>
      <point x="210" y="601" type="curve" smooth="yes"/>
      <point x="235" y="601"/>
      <point x="253" y="577"/>
      <point x="273" y="558" type="curve" smooth="yes"/>
      <point x="292" y="540"/>
      <point x="310" y="528"/>
      <point x="341" y="528" type="curve" smooth="yes"/>
      <point x="392" y="528"/>
      <point x="418" y="575"/>
      <point x="429" y="647" type="curve"/>
      <point x="403" y="657" type="line"/>
      <point x="391" y="613"/>
      <point x="374" y="586"/>
      <point x="346" y="586" type="curve" smooth="yes"/>
      <point x="322" y="586"/>
      <point x="305" y="607"/>
      <point x="283" y="628" type="curve" smooth="yes"/>
      <point x="265" y="644"/>
      <point x="246" y="658"/>
      <point x="216" y="658" type="curve" smooth="yes"/>
      <point x="165" y="658"/>
      <point x="138" y="611"/>
    </contour>
  </outline>
</glyph>
<glyph name="divide" format="2">
  <advance width="489"/>
  <unicode hex="00F7"/>
  <outline>
    <contour>
      <point x="244" y="62" type="curve" smooth="yes"/>
      <point x="279" y="62"/>
      <point x="308" y="87"/>
      <point x="308" y="123" type="curve" smooth="yes"/>
      <point x="308" y="160"/>
      <point x="279" y="184"/>
      <point x="244" y="184" type="curve" smooth="yes"/>
      <point x="209" y="184"/>
      <point x="181" y="160"/>
      <point x="181" y="123" type="curve" smooth="yes"/>
      <point x="181" y="87"/>
      <point x="209" y="62"/>
    </contour>
    <contour>
      <point x="244" y="420" type="curve" smooth="yes"/>
      <point x="279" y="420"/>
      <point x="308" y="445"/>
      <point x="308" y="481" type="curve" smooth="yes"/>
      <point x="308" y="517"/>
      <point x="279" y="542"/>
      <point x="244" y="542" type="curve" smooth="yes"/>
      <point x="209" y="542"/>
      <point x="181" y="517"/>
      <point x="181" y="481" type="curve" smooth="yes"/>
      <point x="181" y="445"/>
      <point x="209" y="420"/>
    </contour>
    <contour>
      <point x="462" y="274" type="line"/>
      <point x="462" y="330" type="line"/>
      <point x="26" y="330" type="line"/>
      <point x="26" y="274" type="line"/>
    </contour>
  </outline>
</glyph>
<glyph name="ydieresis" format="2">
  <advance width="473"/>
  <unicode hex="00FF"/>
  <anchor x="264" y="631" name="aboveLC"/>
  <anchor x="115" y="-232" name="belowLC"/>
  <outline>
    <contour>
      <point x="85" y="-228" type="curve" smooth="yes"/>
      <point x="162" y="-228"/>
      <point x="212" y="-159"/>
      <point x="272" y="0" type="curve" smooth="yes"/>
      <point x="439" y="437" type="line"/>
      <point x="388" y="437" type="line"/>
      <point x="250" y="54" type="line"/>
      <point x="218" y="-34" type="line" smooth="yes"/>
      <point x="195" y="-99"/>
      <point x="158" y="-160"/>
      <point x="99" y="-190" type="curve"/>
      <point x="125" y="-209" type="line"/>
      <point x="161" y="-190" type="line"/>
      <point x="132" y="-159" type="line" smooth="yes"/>
      <point x="107" y="-132"/>
      <point x="87" y="-124"/>
      <point x="63" y="-124" type="curve" smooth="yes"/>
      <point x="34" y="-124"/>
      <point x="6" y="-138"/>
      <point x="0" y="-165" type="curve"/>
      <point x="0" y="-202"/>
      <point x="39" y="-228"/>
    </contour>
    <contour>
      <point x="231" y="-49" type="line"/>
      <point x="274" y="53" type="line"/>
      <point x="267" y="71" type="line"/>
      <point x="132" y="437" type="line"/>
      <point x="35" y="437" type="line"/>
    </contour>
    <contour>
      <point x="2" y="403" type="line"/>
      <point x="92" y="390" type="line"/>
      <point x="122" y="390" type="line"/>
      <point x="228" y="402" type="line"/>
      <point x="228" y="437" type="line"/>
      <point x="2" y="437" type="line"/>
    </contour>
    <contour>
      <point x="293" y="403" type="line"/>
      <point x="388" y="390" type="line"/>
      <point x="406" y="390" type="line"/>
      <point x="472" y="403" type="line"/>
      <point x="472" y="437" type="line"/>
      <point x="293" y="437" type="line"/>
    </contour>
    <contour>
      <point x="166" y="546" type="curve" smooth="yes"/>
      <point x="196" y="546"/>
      <point x="223" y="568"/>
      <point x="223" y="599" type="curve" smooth="yes"/>
      <point x="223" y="631"/>
      <point x="196" y="654"/>
      <point x="166" y="654" type="curve" smooth="yes"/>
      <point x="136" y="654"/>
      <point x="110" y="631"/>
      <point x="110" y="599" type="curve" smooth="yes"/>
      <point x="110" y="568"/>
      <point x="136" y="546"/>
    </contour>
    <contour>
      <point x="362" y="546" type="curve" smooth="yes"/>
      <point x="392" y="546"/>
      <point x="418" y="568"/>
      <point x="418" y="599" type="curve" smooth="yes"/>
      <point x="418" y="631"/>
      <point x="392" y="654"/>
      <point x="362" y="654" type="curve" smooth="yes"/>
      <point x="332" y="654"/>
      <point x="305" y="631"/>
      <point x="305" y="599" type="curve" smooth="yes"/>
      <point x="305" y="568"/>
      <point x="332" y="546"/>
    </contour>
  </outline>
</glyph>
<glyph name="breve" format="2">
  <advance width="368"/>
  <unicode hex="02D8"/>
  <anchor x="184" y="467" name="_aboveLC"/>
  <anchor x="184" y="675" name="aboveLC"/>
  <outline>
    <contour>
      <point x="44" y="665" type="line"/>
      <point x="52" y="595"/>
      <point x="96" y="528"/>
      <point x="184" y="528" type="curve" smooth="yes"/>
      <point x="271" y="528"/>
      <point x="315" y="595"/>
      <point x="323" y="665" type="curve"/>
      <point x="294" y="675" type="line"/>
      <point x="276" y="628"/>
      <point x="244" y="589"/>
      <point x="184" y="589" type="curve" smooth="yes"/>
      <point x="123" y="589"/>
      <point x="92" y="628"/>
      <point x="73" y="675" type="curve"/>
    </contour>
  </outline>
</glyph>
<glyph name="ogonek" format="2">
  <advance width="368"/>
  <unicode hex="02DB"/>
  <anchor x="180" y="0" name="_ogonek"/>
  <outline>
    <contour>
      <point x="88" y="-120" type="curve" smooth="yes"/>
      <point x="88" y="-171"/>
      <point x="124" y="-203"/>
      <point x="175" y="-203" type="curve" smooth="yes"/>
      <point x="210" y="-203"/>
      <point x="251" y="-190"/>
      <point x="273" y="-160" type="curve"/>
      <point x="261" y="-135" type="line"/>
      <point x="243" y="-145"/>
      <point x="225" y="-148"/>
      <point x="212" y="-148" type="curve" smooth="yes"/>
      <point x="176" y="-148"/>
      <point x="149" y="-125"/>
      <point x="149" y="-86" type="curve" smooth="yes"/>
      <point x="149" y="-50"/>
      <point x="172" y="-12"/>
      <point x="209" y="11" type="curve"/>
      <point x="182" y="11" type="line"/>
      <point x="130" y="-13"/>
      <point x="88" y="-64"/>
    </contour>
  </outline>
</glyph>
<glyph name="hungarumlaut" format="2">
  <advance width="368"/>
  <unicode hex="02DD"/>
  <anchor x="166" y="467" name="_aboveLC"/>
  <anchor x="166" y="698" name="aboveLC"/>
  <outline>
    <contour>
      <point x="63" y="522" type="line"/>
      <point x="90" y="506" type="line"/>
      <point x="175" y="614" type="line" smooth="yes"/>
      <point x="193" y="637"/>
      <point x="196" y="653"/>
      <point x="196" y="664" type="curve" smooth="yes"/>
      <point x="196" y="685"/>
      <point x="182" y="698"/>
      <point x="163" y="698" type="curve" smooth="yes"/>
      <point x="146" y="698"/>
      <point x="125" y="687"/>
      <point x="113" y="653" type="curve" smooth="yes"/>
    </contour>
    <contour>
      <point x="195" y="522" type="line"/>
      <point x="221" y="506" type="line"/>
      <point x="307" y="614" type="line" smooth="yes"/>
      <point x="324" y="637"/>
      <point x="329" y="653"/>
      <point x="329" y="664" type="curve" smooth="yes"/>
      <point x="329" y="684"/>
      <point x="313" y="698"/>
      <point x="295" y="698" type="curve" smooth="yes"/>
      <point x="277" y="698"/>
      <point x="257" y="687"/>
      <point x="244" y="653" type="curve" smooth="yes"/>
    </contour>
  </outline>
</glyph>
<glyph name="pi" format="2">
  <advance width="548"/>
  <unicode hex="03C0"/>
  <outline>
    <contour>
      <point x="100" y="-11" type="curve" smooth="yes"/>
      <point x="154" y="-11"/>
      <point x="187" y="20"/>
      <point x="193" y="102" type="curve" smooth="yes"/>
      <point x="200" y="198"/>
      <point x="201" y="303"/>
      <point x="202" y="403" type="curve"/>
      <point x="160" y="403" type="line"/>
      <point x="156" y="287"/>
      <point x="151" y="169"/>
      <point x="138" y="53" type="curve"/>
      <point x="172" y="94" type="line"/>
      <point x="134" y="92"/>
      <point x="92" y="87"/>
      <point x="60" y="80" type="curve"/>
      <point x="48" y="70"/>
      <point x="41" y="58"/>
      <point x="41" y="36" type="curve" smooth="yes"/>
      <point x="41" y="6"/>
      <point x="64" y="-11"/>
    </contour>
    <contour>
      <point x="23" y="350" type="line"/>
      <point x="172" y="371" type="line"/>
      <point x="377" y="371" type="line"/>
      <point x="522" y="367" type="line"/>
      <point x="518" y="437" type="line"/>
      <point x="196" y="437" type="line" smooth="yes"/>
      <point x="98" y="437"/>
      <point x="62" y="424"/>
      <point x="16" y="387" type="curve"/>
    </contour>
    <contour>
      <point x="430" y="-11" type="curve" smooth="yes"/>
      <point x="470" y="-11"/>
      <point x="494" y="4"/>
      <point x="515" y="37" type="curve"/>
      <point x="506" y="62" type="line"/>
      <point x="494" y="57"/>
      <point x="480" y="54"/>
      <point x="467" y="54" type="curve" smooth="yes"/>
      <point x="431" y="54"/>
      <point x="413" y="69"/>
      <point x="411" y="130" type="curve" smooth="yes"/>
      <point x="402" y="403" type="line"/>
      <point x="346" y="403" type="line"/>
      <point x="341" y="297"/>
      <point x="334" y="183"/>
      <point x="334" y="102" type="curve" smooth="yes"/>
      <point x="334" y="24"/>
      <point x="365" y="-11"/>
    </contour>
  </outline>
</glyph>
<glyph name="uni2010" format="2">
  <advance width="289"/>
  <unicode hex="2010"/>
  <outline>
    <contour>
      <point x="36" y="199" type="line"/>
      <point x="253" y="199" type="line"/>
      <point x="253" y="263" type="line"/>
      <point x="36" y="263" type="line"/>
    </contour>
  </outline>
</glyph>
<glyph name="quoteleft" format="2">
  <advance width="273"/>
  <unicode hex="2018"/>
  <outline>
    <contour>
      <point x="170" y="592" type="line"/>
      <point x="96" y="554"/>
      <point x="52" y="489"/>
      <point x="52" y="433" type="curve" smooth="yes"/>
      <point x="52" y="372"/>
      <point x="83" y="348"/>
      <point x="126" y="348" type="curve" smooth="yes"/>
      <point x="166" y="348"/>
      <point x="190" y="376"/>
      <point x="190" y="413" type="curve" smooth="yes"/>
      <point x="190" y="448"/>
      <point x="164" y="468"/>
      <point x="136" y="468" type="curve" smooth="yes"/>
      <point x="113" y="468"/>
      <point x="86" y="450"/>
      <point x="86" y="427" type="curve"/>
      <point x="91" y="427"/>
      <point x="113" y="427"/>
      <point x="120" y="427" type="curve"/>
      <point x="116" y="436"/>
      <point x="116" y="449"/>
      <point x="116" y="465" type="curve" smooth="yes"/>
      <point x="116" y="502"/>
      <point x="144" y="530"/>
      <point x="178" y="557" type="curve"/>
    </contour>
  </outline>
</glyph>
<glyph name="dagger" format="2">
  <advance width="471"/>
  <unicode hex="2020"/>
  <outline>
    <contour>
      <point x="35" y="444" type="curve" smooth="yes"/>
      <point x="35" y="417"/>
      <point x="49" y="401"/>
      <point x="82" y="401" type="curve" smooth="yes"/>
      <point x="106" y="401"/>
      <point x="144" y="410"/>
      <point x="172" y="416" type="curve" smooth="yes"/>
      <point x="236" y="432" type="line"/>
      <point x="236" y="455" type="line"/>
      <point x="172" y="471" type="line" smooth="yes"/>
      <point x="144" y="478"/>
      <point x="106" y="486"/>
      <point x="82" y="486" type="curve" smooth="yes"/>
      <point x="49" y="486"/>
      <point x="35" y="470"/>
    </contour>
    <contour>
      <point x="195" y="279" type="curve" smooth="yes"/>
      <point x="195" y="238"/>
      <point x="206" y="124"/>
      <point x="223" y="-69" type="curve"/>
      <point x="249" y="-69" type="line"/>
      <point x="266" y="124"/>
      <point x="276" y="237"/>
      <point x="276" y="279" type="curve" smooth="yes"/>
      <point x="276" y="334"/>
      <point x="268" y="368"/>
      <point x="247" y="444" type="curve"/>
      <point x="224" y="444" type="line"/>
      <point x="203" y="368"/>
      <point x="195" y="333"/>
    </contour>
    <contour>
      <point x="236" y="659" type="curve" smooth="yes"/>
      <point x="209" y="659"/>
      <point x="193" y="646"/>
      <point x="193" y="613" type="curve" smooth="yes"/>
      <point x="193" y="586"/>
      <point x="204" y="532"/>
      <point x="209" y="506" type="curve" smooth="yes"/>
      <point x="223" y="444" type="line"/>
      <point x="248" y="444" type="line"/>
      <point x="262" y="506" type="line" smooth="yes"/>
      <point x="268" y="532"/>
      <point x="278" y="586"/>
      <point x="278" y="613" type="curve" smooth="yes"/>
      <point x="278" y="646"/>
      <point x="262" y="659"/>
    </contour>
    <contour>
      <point x="436" y="444" type="curve" smooth="yes"/>
      <point x="436" y="470"/>
      <point x="422" y="486"/>
      <point x="390" y="486" type="curve" smooth="yes"/>
      <point x="365" y="486"/>
      <point x="328" y="477"/>
      <point x="299" y="471" type="curve" smooth="yes"/>
      <point x="236" y="455" type="line"/>
      <point x="236" y="432" type="line"/>
      <point x="299" y="416" type="line" smooth="yes"/>
      <point x="328" y="409"/>
      <point x="365" y="401"/>
      <point x="390" y="401" type="curve" smooth="yes"/>
      <point x="422" y="401"/>
      <point x="436" y="417"/>
    </contour>
  </outline>
</glyph>
<glyph name="daggerdbl" format="2">
  <advance width="471"/>
  <unicode hex="2021"/>
  <outline>
    <contour>
      <point x="35" y="130" type="curve" smooth="yes"/>
      <point x="35" y="104"/>
      <point x="49" y="88"/>
      <point x="82" y="88" type="curve" smooth="yes"/>
      <point x="106" y="88"/>
      <point x="144" y="96"/>
      <point x="172" y="103" type="curve" smooth="yes"/>
      <point x="236" y="119" type="line"/>
      <point x="236" y="142" type="line"/>
      <point x="172" y="158" type="line" smooth="yes"/>
      <point x="144" y="164"/>
      <point x="106" y="173"/>
      <point x="82" y="173" type="curve" smooth="yes"/>
      <point x="49" y="173"/>
      <point x="35" y="157"/>
    </contour>
    <contour>
      <point x="436" y="130" type="curve" smooth="yes"/>
      <point x="436" y="157"/>
      <point x="422" y="173"/>
      <point x="390" y="173" type="curve" smooth="yes"/>
      <point x="365" y="173"/>
      <point x="328" y="165"/>
      <point x="299" y="158" type="curve" smooth="yes"/>
      <point x="236" y="142" type="line"/>
      <point x="236" y="119" type="line"/>
      <point x="299" y="103" type="line" smooth="yes"/>
      <point x="328" y="97"/>
      <point x="365" y="88"/>
      <point x="390" y="88" type="curve" smooth="yes"/>
      <point x="422" y="88"/>
      <point x="436" y="104"/>
    </contour>
    <contour>
      <point x="236" y="-84" type="curve" smooth="yes"/>
      <point x="262" y="-84"/>
      <point x="278" y="-71"/>
      <point x="278" y="-38" type="curve" smooth="yes"/>
      <point x="278" y="-11"/>
      <point x="268" y="42"/>
      <point x="262" y="68" type="curve" smooth="yes"/>
      <point x="248" y="130" type="line"/>
      <point x="223" y="130" type="line"/>
      <point x="209" y="68" type="line" smooth="yes"/>
      <point x="204" y="42"/>
      <point x="193" y="-11"/>
      <point x="193" y="-38" type="curve" smooth="yes"/>
      <point x="193" y="-71"/>
      <point x="209" y="-84"/>
    </contour>
    <contour>
      <point x="436" y="444" type="curve" smooth="yes"/>
      <point x="436" y="470"/>
      <point x="422" y="486"/>
      <point x="390" y="486" type="curve" smooth="yes"/>
      <point x="365" y="486"/>
      <point x="328" y="477"/>
      <point x="299" y="471" type="curve" smooth="yes"/>
      <point x="236" y="455" type="line"/>
      <point x="236" y="432" type="line"/>
      <point x="299" y="416" type="line" smooth="yes"/>
      <point x="328" y="409"/>
      <point x="365" y="401"/>
      <point x="390" y="401" type="curve" smooth="yes"/>
      <point x="422" y="401"/>
      <point x="436" y="417"/>
    </contour>
    <contour>
      <point x="236" y="659" type="curve" smooth="yes"/>
      <point x="209" y="659"/>
      <point x="193" y="646"/>
      <point x="193" y="613" type="curve" smooth="yes"/>
      <point x="193" y="586"/>
      <point x="204" y="532"/>
      <point x="209" y="506" type="curve" smooth="yes"/>
      <point x="223" y="444" type="line"/>
      <point x="248" y="444" type="line"/>
      <point x="262" y="506" type="line" smooth="yes"/>
      <point x="268" y="532"/>
      <point x="278" y="586"/>
      <point x="278" y="613" type="curve" smooth="yes"/>
      <point x="278" y="646"/>
      <point x="262" y="659"/>
    </contour>
    <contour>
      <point x="35" y="444" type="curve" smooth="yes"/>
      <point x="35" y="417"/>
      <point x="49" y="401"/>
      <point x="82" y="401" type="curve" smooth="yes"/>
      <point x="106" y="401"/>
      <point x="144" y="410"/>
      <point x="172" y="416" type="curve" smooth="yes"/>
      <point x="236" y="432" type="line"/>
      <point x="236" y="455" type="line"/>
      <point x="172" y="471" type="line" smooth="yes"/>
      <point x="144" y="478"/>
      <point x="106" y="486"/>
      <point x="82" y="486" type="curve" smooth="yes"/>
      <point x="49" y="486"/>
      <point x="35" y="470"/>
    </contour>
    <contour>
      <point x="276" y="287" type="curve" smooth="yes"/>
      <point x="276" y="340"/>
      <point x="267" y="370"/>
      <point x="247" y="444" type="curve"/>
      <point x="224" y="444" type="line"/>
      <point x="204" y="370"/>
      <point x="195" y="339"/>
      <point x="195" y="287" type="curve" smooth="yes"/>
      <point x="195" y="236"/>
      <point x="204" y="205"/>
      <point x="224" y="130" type="curve"/>
      <point x="247" y="130" type="line"/>
      <point x="267" y="204"/>
      <point x="276" y="235"/>
    </contour>
  </outline>
</glyph>
<glyph name="uni2027" format="2">
  <advance width="276"/>
  <unicode hex="2027"/>
  <outline>
    <contour>
      <point x="138" y="150" type="curve" smooth="yes"/>
      <point x="175" y="150"/>
      <point x="205" y="182"/>
      <point x="205" y="218" type="curve" smooth="yes"/>
      <point x="205" y="255"/>
      <point x="175" y="287"/>
      <point x="138" y="287" type="curve" smooth="yes"/>
      <point x="100" y="287"/>
      <point x="70" y="255"/>
      <point x="70" y="218" type="curve" smooth="yes"/>
      <point x="70" y="182"/>
      <point x="100" y="150"/>
    </contour>
  </outline>
</glyph>
<glyph name="fraction" format="2">
  <advance width="128"/>
  <unicode hex="2044"/>
  <outline>
    <contour>
      <point x="-133" y="-23" type="line"/>
      <point x="292" y="590" type="line"/>
      <point x="262" y="614" type="line"/>
      <point x="-163" y="0" type="line"/>
    </contour>
  </outline>
</glyph>
<glyph name="Euro" format="2">
  <advance width="463"/>
  <unicode hex="20AC"/>
  <outline>
    <contour>
      <point x="290" y="-11" type="curve" smooth="yes"/>
      <point x="378" y="-11"/>
      <point x="441" y="36"/>
      <point x="449" y="107" type="curve"/>
      <point x="446" y="130"/>
      <point x="429" y="140"/>
      <point x="408" y="140" type="curve" smooth="yes"/>
      <point x="385" y="140"/>
      <point x="363" y="127"/>
      <point x="349" y="77" type="curve" smooth="yes"/>
      <point x="331" y="8" type="line"/>
      <point x="391" y="47" type="line"/>
      <point x="356" y="33"/>
      <point x="331" y="30"/>
      <point x="311" y="30" type="curve" smooth="yes"/>
      <point x="211" y="30"/>
      <point x="146" y="123"/>
      <point x="146" y="295" type="curve" smooth="yes"/>
      <point x="146" y="470"/>
      <point x="213" y="563"/>
      <point x="310" y="563" type="curve" smooth="yes"/>
      <point x="329" y="563"/>
      <point x="362" y="560"/>
      <point x="402" y="542" type="curve"/>
      <point x="332" y="585" type="line"/>
      <point x="352" y="513" type="line" smooth="yes"/>
      <point x="365" y="464"/>
      <point x="383" y="450"/>
      <point x="407" y="450" type="curve" smooth="yes"/>
      <point x="427" y="450"/>
      <point x="448" y="461"/>
      <point x="453" y="485" type="curve"/>
      <point x="443" y="555"/>
      <point x="385" y="605"/>
      <point x="297" y="605" type="curve" smooth="yes"/>
      <point x="155" y="605"/>
      <point x="57" y="486"/>
      <point x="57" y="295" type="curve" smooth="yes"/>
      <point x="57" y="104"/>
      <point x="149" y="-11"/>
    </contour>
    <contour>
      <point x="10" y="338" type="line"/>
      <point x="356" y="338" type="line"/>
      <point x="356" y="385" type="line"/>
      <point x="10" y="385" type="line"/>
    </contour>
    <contour>
      <point x="10" y="207" type="line"/>
      <point x="356" y="207" type="line"/>
      <point x="356" y="253" type="line"/>
      <point x="10" y="253" type="line"/>
    </contour>
  </outline>
</glyph>
<glyph name="trademark" format="2">
  <advance width="670"/>
  <unicode hex="2122"/>
  <outline>
    <contour>
      <point x="323" y="614" type="line"/>
      <point x="323" y="344" type="line"/>
      <point x="351" y="344" type="line"/>
      <point x="351" y="614" type="line"/>
    </contour>
    <contour>
      <point x="293" y="614" type="line"/>
      <point x="293" y="587" type="line"/>
      <point x="348" y="582" type="line"/>
      <point x="319" y="609" type="line"/>
      <point x="438" y="344" type="line"/>
      <point x="455" y="344" type="line"/>
      <point x="575" y="614" type="line"/>
      <point x="548" y="614" type="line"/>
      <point x="458" y="415" type="line"/>
      <point x="473" y="414" type="line"/>
      <point x="379" y="614" type="line"/>
    </contour>
    <contour>
      <point x="569" y="582" type="line"/>
      <point x="581" y="582" type="line"/>
      <point x="640" y="587" type="line"/>
      <point x="640" y="614" type="line"/>
      <point x="569" y="614" type="line"/>
    </contour>
    <contour>
      <point x="544" y="344" type="line"/>
      <point x="607" y="344" type="line"/>
      <point x="607" y="614" type="line"/>
      <point x="560" y="614" type="line"/>
      <point x="544" y="575" type="line"/>
    </contour>
    <contour>
      <point x="570" y="376" type="line"/>
      <point x="510" y="369" type="line"/>
      <point x="510" y="344" type="line"/>
      <point x="640" y="344" type="line"/>
      <point x="640" y="369" type="line"/>
      <point x="581" y="376" type="line"/>
    </contour>
    <contour>
      <point x="330" y="376" type="line"/>
      <point x="287" y="369" type="line"/>
      <point x="287" y="344" type="line"/>
      <point x="387" y="344" type="line"/>
      <point x="387" y="369" type="line"/>
      <point x="344" y="376" type="line"/>
    </contour>
    <contour>
      <point x="126" y="376" type="line"/>
      <point x="68" y="369" type="line"/>
      <point x="68" y="344" type="line"/>
      <point x="205" y="344" type="line"/>
      <point x="205" y="369" type="line"/>
      <point x="147" y="376" type="line"/>
    </contour>
    <contour>
      <point x="104" y="344" type="line"/>
      <point x="168" y="344" type="line"/>
      <point x="168" y="614" type="line"/>
      <point x="104" y="614" type="line"/>
    </contour>
    <contour>
      <point x="244" y="586" type="line"/>
      <point x="217" y="614" type="line"/>
      <point x="228" y="536" type="line"/>
      <point x="260" y="536" type="line"/>
      <point x="258" y="614" type="line"/>
      <point x="15" y="614" type="line"/>
      <point x="13" y="536" type="line"/>
      <point x="46" y="536" type="line"/>
      <point x="56" y="614" type="line"/>
      <point x="29" y="586" type="line"/>
    </contour>
  </outline>
</glyph>
<glyph name="product" format="2">
  <advance width="710"/>
  <unicode hex="220F"/>
  <outline>
    <contour>
      <point x="552" y="566" type="line"/>
      <point x="552" y="614" type="line"/>
      <point x="167" y="614" type="line"/>
      <point x="167" y="566" type="line"/>
    </contour>
    <contour>
      <point x="156" y="-66" type="line"/>
      <point x="35" y="-80" type="line"/>
      <point x="35" y="-118" type="line"/>
      <point x="298" y="-118" type="line"/>
      <point x="298" y="-80" type="line"/>
      <point x="176" y="-66" type="line"/>
    </contour>
    <contour>
      <point x="120" y="166" type="line" smooth="yes"/>
      <point x="120" y="69"/>
      <point x="120" y="-25"/>
      <point x="117" y="-118" type="curve"/>
      <point x="217" y="-118" type="line"/>
      <point x="214" y="-23"/>
      <point x="214" y="71"/>
      <point x="214" y="166" type="curve" smooth="yes"/>
      <point x="214" y="329" type="line" smooth="yes"/>
      <point x="214" y="425"/>
      <point x="214" y="521"/>
      <point x="217" y="614" type="curve"/>
      <point x="117" y="614" type="line"/>
      <point x="120" y="519"/>
      <point x="120" y="424"/>
      <point x="120" y="329" type="curve" smooth="yes"/>
    </contour>
    <contour>
      <point x="543" y="562" type="line"/>
      <point x="553" y="562" type="line"/>
      <point x="675" y="575" type="line"/>
      <point x="675" y="614" type="line"/>
      <point x="543" y="614" type="line"/>
    </contour>
    <contour>
      <point x="496" y="166" type="line" smooth="yes"/>
      <point x="496" y="69"/>
      <point x="496" y="-25"/>
      <point x="494" y="-118" type="curve"/>
      <point x="593" y="-118" type="line"/>
      <point x="590" y="-23"/>
      <point x="590" y="71"/>
      <point x="590" y="166" type="curve" smooth="yes"/>
      <point x="590" y="329" type="line" smooth="yes"/>
      <point x="590" y="425"/>
      <point x="590" y="521"/>
      <point x="593" y="614" type="curve"/>
      <point x="494" y="614" type="line"/>
      <point x="496" y="519"/>
      <point x="496" y="424"/>
      <point x="496" y="329" type="curve" smooth="yes"/>
    </contour>
    <contour>
      <point x="533" y="-66" type="line"/>
      <point x="412" y="-80" type="line"/>
      <point x="412" y="-118" type="line"/>
      <point x="675" y="-118" type="line"/>
      <point x="675" y="-80" type="line"/>
      <point x="553" y="-66" type="line"/>
    </contour>
    <contour>
      <point x="156" y="562" type="line"/>
      <point x="167" y="562" type="line"/>
      <point x="167" y="614" type="line"/>
      <point x="35" y="614" type="line"/>
      <point x="35" y="575" type="line"/>
    </contour>
  </outline>
</glyph>
<glyph name="approxequal" format="2">
  <advance width="489"/>
  <unicode hex="2248"/>
  <outline>
    <contour>
      <point x="263" y="216" type="curve" smooth="yes"/>
      <point x="227" y="251"/>
      <point x="194" y="266"/>
      <point x="156" y="266" type="curve" smooth="yes"/>
      <point x="87" y="266"/>
      <point x="49" y="221"/>
      <point x="44" y="133" type="curve"/>
      <point x="93" y="126" type="line"/>
      <point x="101" y="190"/>
      <point x="125" y="209"/>
      <point x="150" y="209" type="curve" smooth="yes"/>
      <point x="174" y="209"/>
      <point x="196" y="202"/>
      <point x="227" y="172" type="curve" smooth="yes"/>
      <point x="263" y="136"/>
      <point x="295" y="120"/>
      <point x="333" y="120" type="curve" smooth="yes"/>
      <point x="402" y="120"/>
      <point x="440" y="165"/>
      <point x="446" y="253" type="curve"/>
      <point x="396" y="261" type="line"/>
      <point x="389" y="196"/>
      <point x="365" y="177"/>
      <point x="339" y="177" type="curve" smooth="yes"/>
      <point x="315" y="177"/>
      <point x="292" y="185"/>
    </contour>
    <contour>
      <point x="263" y="437" type="curve" smooth="yes"/>
      <point x="227" y="471"/>
      <point x="194" y="487"/>
      <point x="156" y="487" type="curve" smooth="yes"/>
      <point x="87" y="487"/>
      <point x="49" y="442"/>
      <point x="44" y="354" type="curve"/>
      <point x="93" y="346" type="line"/>
      <point x="101" y="411"/>
      <point x="125" y="430"/>
      <point x="150" y="430" type="curve" smooth="yes"/>
      <point x="174" y="430"/>
      <point x="196" y="423"/>
      <point x="227" y="392" type="curve" smooth="yes"/>
      <point x="263" y="356"/>
      <point x="295" y="341"/>
      <point x="333" y="341" type="curve" smooth="yes"/>
      <point x="402" y="341"/>
      <point x="440" y="386"/>
      <point x="446" y="474" type="curve"/>
      <point x="396" y="482" type="line"/>
      <point x="389" y="417"/>
      <point x="365" y="398"/>
      <point x="339" y="398" type="curve" smooth="yes"/>
      <point x="315" y="398"/>
      <point x="292" y="406"/>
    </contour>
  </outline>
</glyph>
<glyph name="uniA4DB" format="2">
  <advance width="529"/>
  <unicode hex="A4DB"/>
  <outline>
    <contour>
      <point x="249" y="-8" type="curve" smooth="yes"/>
      <point x="394" y="-8"/>
      <point x="473" y="120"/>
      <point x="473" y="270" type="curve" smooth="yes"/>
      <point x="473" y="420"/>
      <point x="394" y="538"/>
      <point x="249" y="538" type="curve" smooth="yes"/>
      <point x="149" y="538"/>
      <point x="85" y="475"/>
      <point x="58" y="400" type="curve"/>
      <point x="140" y="378" type="line"/>
      <point x="158" y="423"/>
      <point x="198" y="458"/>
      <point x="249" y="458" type="curve" smooth="yes"/>
      <point x="344" y="458"/>
      <point x="389" y="370"/>
      <point x="389" y="265" type="curve" smooth="yes"/>
      <point x="389" y="160"/>
      <point x="344" y="72"/>
      <point x="249" y="72" type="curve" smooth="yes"/>
      <point x="189" y="72"/>
      <point x="149" y="112"/>
      <point x="130" y="179" type="curve"/>
      <point x="48" y="155" type="line"/>
      <point x="79" y="49"/>
      <point x="149" y="-8"/>
    </contour>
  </outline>
</glyph>
<glyph name="uniA4DF" format="2">
  <advance width="590"/>
  <unicode hex="A4DF"/>
  <outline>
    <contour>
      <point x="64" y="0" type="line"/>
      <point x="148" y="0" type="line"/>
      <point x="148" y="379" type="line"/>
      <point x="241" y="238" type="line" smooth="yes"/>
      <point x="254" y="218"/>
      <point x="270" y="203"/>
      <point x="295" y="203" type="curve" smooth="yes"/>
      <point x="320" y="203"/>
      <point x="336" y="218"/>
      <point x="349" y="238" type="curve" smooth="yes"/>
      <point x="442" y="379" type="line"/>
      <point x="442" y="0" type="line"/>
      <point x="526" y="0" type="line"/>
      <point x="526" y="530" type="line"/>
      <point x="447" y="530" type="line"/>
      <point x="270" y="265" type="line"/>
      <point x="320" y="265" type="line"/>
      <point x="143" y="530" type="line"/>
      <point x="64" y="530" type="line"/>
    </contour>
  </outline>
</glyph>
<glyph name="uniA4E4" format="2">
  <advance width="512"/>
  <unicode hex="A4E4"/>
  <outline>
    <contour>
      <point x="231" y="0" type="curve" smooth="yes"/>
      <point x="448" y="0" type="line"/>
      <point x="448" y="530" type="line"/>
      <point x="364" y="530" type="line"/>
      <point x="364" y="280" type="line"/>
      <point x="406" y="310" type="line"/>
      <point x="231" y="310" type="line" smooth="yes"/>
      <point x="118" y="310"/>
      <point x="55" y="241"/>
      <point x="55" y="148" type="curve" smooth="yes"/>
      <point x="55" y="60"/>
      <point x="118" y="0"/>
    </contour>
    <contour>
      <point x="364" y="50" type="line"/>
      <point x="406" y="80" type="line"/>
      <point x="231" y="80" type="line" smooth="yes"/>
      <point x="176" y="80"/>
      <point x="139" y="104"/>
      <point x="139" y="153" type="curve" smooth="yes"/>
      <point x="139" y="206"/>
      <point x="176" y="230"/>
      <point x="231" y="230" type="curve" smooth="yes"/>
      <point x="406" y="230" type="line"/>
      <point x="364" y="260" type="line"/>
    </contour>
    <contour>
      <point x="211" y="270" type="curve"/>
      <point x="316" y="270" type="line"/>
      <point x="235" y="310"/>
      <point x="183" y="441"/>
      <point x="142" y="530" type="curve"/>
      <point x="48" y="530" type="line"/>
      <point x="90" y="450"/>
      <point x="154" y="290"/>
    </contour>
  </outline>
</glyph>
<glyph name="f_l" format="2">
  <advance width="564"/>
  <unicode hex="FB02"/>
  <outline>
    <contour>
      <point x="102" y="0" type="curve"/>
      <point x="192" y="0" type="line"/>
      <point x="190" y="64"/>
      <point x="189" y="128"/>
      <point x="189" y="193" type="curve" smooth="yes"/>
      <point x="189" y="400" type="line"/>
      <point x="182" y="506"/>
      <point x="193" y="574"/>
      <point x="232" y="613" type="curve" smooth="yes"/>
      <point x="255" y="637"/>
      <point x="279" y="648"/>
      <point x="321" y="660" type="curve"/>
      <point x="263" y="663" type="line"/>
      <point x="288" y="640" type="line" smooth="yes"/>
      <point x="322" y="609"/>
      <point x="359" y="592"/>
      <point x="391" y="592" type="curve" smooth="yes"/>
      <point x="420" y="592"/>
      <point x="439" y="610"/>
      <point x="441" y="634" type="curve"/>
      <point x="431" y="670"/>
      <point x="378" y="688"/>
      <point x="324" y="688" type="curve" smooth="yes"/>
      <point x="274" y="688"/>
      <point x="219" y="673"/>
      <point x="177" y="631" type="curve" smooth="yes"/>
      <point x="126" y="580"/>
      <point x="114" y="530"/>
      <point x="104" y="426" type="curve"/>
      <point x="135" y="442" type="line"/>
      <point x="30" y="428" type="line"/>
      <point x="30" y="387" type="line"/>
      <point x="104" y="387" type="line"/>
      <point x="104" y="193" type="line" smooth="yes"/>
      <point x="104" y="128"/>
      <point x="103" y="64"/>
    </contour>
    <contour>
      <point x="32" y="0" type="line"/>
      <point x="271" y="0" type="line"/>
      <point x="271" y="34" type="line"/>
      <point x="164" y="52" type="line"/>
      <point x="134" y="52" type="line"/>
      <point x="32" y="34" type="line"/>
    </contour>
    <contour>
      <point x="147" y="387" type="line"/>
      <point x="311" y="387" type="line"/>
      <point x="311" y="437" type="line"/>
      <point x="147" y="437" type="line"/>
    </contour>
    <contour>
      <point x="313" y="0" type="line"/>
      <point x="542" y="0" type="line"/>
      <point x="542" y="34" type="line"/>
      <point x="440" y="52" type="line"/>
      <point x="414" y="52" type="line"/>
      <point x="313" y="34" type="line"/>
    </contour>
    <contour>
      <point x="382" y="0" type="curve"/>
      <point x="472" y="0" type="line"/>
      <point x="471" y="64"/>
      <point x="470" y="128"/>
      <point x="470" y="193" type="curve" smooth="yes"/>
      <point x="470" y="540" type="line"/>
      <point x="473" y="670" type="line"/>
      <point x="460" y="678" type="line"/>
      <point x="385" y="644" type="line"/>
      <point x="385" y="193" type="line" smooth="yes"/>
      <point x="385" y="128"/>
      <point x="384" y="64"/>
    </contour>
  </outline>
</glyph>
<glyph name="u11FB0" format="2">
  <advance width="560"/>
  <unicode hex="11FB0"/>
  <outline>
    <contour>
      <point x="322" y="530" type="line"/>
      <point x="238" y="530" type="line"/>
      <point x="238" y="307" type="line"/>
      <point x="48" y="0" type="line"/>
      <point x="147" y="0" type="line"/>
      <point x="303" y="260" type="line"/>
      <point x="257" y="260" type="line"/>
      <point x="413" y="0" type="line"/>
      <point x="512" y="0" type="line"/>
      <point x="322" y="307" type="line"/>
    </contour>
  </outline>
</glyph>
